<?xml version="1.0" encoding="UTF-8" standalone="no"?>
<!-- Created with Inkscape (http://www.inkscape.org/) -->

<svg
   width="210mm"
   height="297mm"
   viewBox="0 0 210 297"
   version="1.1"
   id="svg75187"
   inkscape:version="1.1.1 (eb90963e84, 2021-10-02)"
   sodipodi:docname="hearts.svg"
   xmlns:inkscape="http://www.inkscape.org/namespaces/inkscape"
   xmlns:sodipodi="http://sodipodi.sourceforge.net/DTD/sodipodi-0.dtd"
   xmlns="http://www.w3.org/2000/svg"
   xmlns:svg="http://www.w3.org/2000/svg">
  <sodipodi:namedview
     id="namedview75189"
     pagecolor="#ffffff"
     bordercolor="#666666"
     borderopacity="1.0"
     inkscape:pageshadow="2"
     inkscape:pageopacity="0.0"
     inkscape:pagecheckerboard="0"
     inkscape:document-units="mm"
     showgrid="false"
     inkscape:zoom="0.26582969"
     inkscape:cx="396.87064"
     inkscape:cy="562.39015"
     inkscape:window-width="1920"
     inkscape:window-height="1016"
     inkscape:window-x="3840"
     inkscape:window-y="27"
     inkscape:window-maximized="1"
     inkscape:current-layer="layer1" />
  <defs
     id="defs75184" />
  <g
     inkscape:label="Layer 1"
     inkscape:groupmode="layer"
     id="layer1">
    <path
       d="m 73.91428,22.260836 c 0,-0.0809 0.17075,-0.50631 0.37963,-0.94557 l 0.37962,-0.79863 -0.38623,0.008 -0.38618,0.008 -0.16588,-0.57022 c -0.38403,-1.32008 -1.08562,-2.4914 -2.15444,-3.59686 -1.4324,-1.48151 -3.14549,-2.55366 -6.69246,-4.1886 -3.92453,-1.80897 -5.52143,-2.79354 -7.28009,-4.48856 -2.67662,-2.579744 -4.27612,-6.161824 -4.41563,-9.888744 -0.0689,-1.83774 0.19734,-3.256098 0.8614,-4.592708 0.64564,-1.29928 1.45803,-2.18891 2.76405,-3.02677 3.61514,-2.31927 7.64778,-1.99485 11.50368,0.92542 0.68994,0.52253 2.32395,2.14839 2.93005,2.91546 0.66973,0.847598 1.35995,1.874368 1.93644,2.880708 l 0.4945,0.86318 0.1979,-0.50921 c 1.43578,-3.692598 3.49361,-6.647438 6.04182,-8.675568 2.38138,-1.89531 4.89851,-3.13853 7.42411,-3.66677 1.14994,-0.24053 2.81244,-0.27101 3.75566,-0.0689 2.92055,0.62585 4.54537,2.28403 5.19399,5.30071 0.2054,0.95478 0.22297,3.16728 0.034,4.26218 -0.58737,3.404568 -2.17312,6.472878 -5.09859,9.865358 -0.98582,1.14321 -2.30699,2.48263 -4.64577,4.709954 -3.61495,3.44278 -5.15464,5.06072 -6.4933,6.8234 -1.16816,1.53816 -2.09143,3.05302 -2.60923,4.28104 -0.38412,0.911 -0.80162,1.3302 -1.80358,1.81079 -1.06758,0.51207 -1.76561,0.65588 -1.76561,0.36376 z m 3.90646,-6.29785 c 1.20155,-1.44577 2.65193,-2.93668 5.47948,-5.63268 3.90392,-3.722354 5.50221,-5.490814 6.95535,-7.696014 1.00232,-1.52104 1.57432,-2.65603 2.10556,-4.17789 1.24386,-3.56316 1.05145,-6.837778 -0.53965,-9.183458 -0.46381,-0.6838 -1.34316,-1.44583 -2.07618,-1.79924 -0.9107,-0.43907 -1.33823,-0.53917 -2.48673,-0.58228 -1.10248,-0.0414 -1.79985,0.0536 -2.77574,0.378 -2.12927,0.70782 -3.68784,1.96948 -5.18406,4.19634 -1.51427,2.2538 -2.55581,4.883108 -3.64782,9.208868 -0.35857,1.42049 -0.42641,1.61851 -0.62693,1.83026 -0.56271,0.59424 -2.22664,1.51641 -2.75486,1.52676 l -0.28637,0.005 -0.25697,-0.8495 c -0.66296,-2.19131 -1.51872,-4.06141 -2.59814,-5.67788 -2.44537,-3.661898 -5.87345,-6.252098 -8.97385,-6.780508 -1.63741,-0.27911 -2.45508,-0.0239 -2.89393,0.90292 -0.86863,1.83456 -0.98888,4.447338 -0.32769,7.119548 1.01894,4.11818 3.51823,7.24234 7.73496,9.668924 0.91182,0.52467 1.54663,0.84169 3.14964,1.57271 3.53391,1.6116 5.51581,2.83569 6.9916,4.31826 0.68846,0.69163 1.50462,1.83659 1.79825,2.52269 l 0.17492,0.40855 0.17691,-0.22765 c 0.0973,-0.12516 0.48539,-0.59876 0.86239,-1.05235 z"
       style="fill:#be4e0e;stroke-width:0.0187303"
       id="path2098-2" />
    <path
       d="m 176.48016,83.522458 c -0.15013,-0.15013 -0.14833,-0.23833 0.009,-0.47809 0.14488,-0.2199 0.36942,-0.39615 1.73376,-1.36189 0.53735,-0.38034 0.96441,-0.70412 0.94905,-0.7195 -0.0144,-0.0144 -0.16045,0.0186 -0.32254,0.076 -0.16189,0.0571 -0.41384,0.11323 -0.55967,0.12463 -0.22845,0.018 -0.26821,-9.8e-4 -0.28781,-0.13856 -0.0202,-0.13802 -0.0647,-0.15918 -0.33941,-0.15918 h -0.31678 l -1.18261,-1.2168 c -1.13266,-1.1654 -4.23247,-4.23582 -5.70467,-5.65058 -1.93482,-1.85937 -4.67793,-4.86767 -6.09964,-6.68929 -0.72249,-0.92567 -2.20593,-3.1398 -2.70352,-4.03513 -1.40566,-2.52913 -2.29487,-4.94097 -2.75361,-7.46856 -0.16732,-0.9227 -0.16913,-2.80852 -0.003,-3.5314 0.27514,-1.19752 0.69171,-1.92724 1.64116,-2.87526 0.78601,-0.78479 1.53536,-1.29031 2.58088,-1.74105 1.07978,-0.46552 1.66964,-0.5922 2.72747,-0.58568 1.077,0.008 1.71223,0.14923 2.61844,0.58788 2.63149,1.2737 5.70509,5.28076 7.97693,10.39951 0.9874,2.2247 2.08981,5.31273 2.67032,7.47988 0.15646,0.58405 0.3229,1.20523 0.36989,1.38045 l 0.0855,0.31857 0.0991,-0.35397 c 1.34205,-4.79738 3.53363,-9.84554 5.70801,-13.14799 2.14215,-3.25349 4.92484,-5.60091 7.58524,-6.39878 0.8841,-0.26512 2.03933,-0.28222 2.73896,-0.0405 1.38613,0.47892 2.4614,1.73114 2.89886,3.37593 0.19244,0.72327 0.25956,2.65295 0.13313,3.81372 -1.09225,10.00994 -7.41826,19.19933 -18.85358,27.38734 -1.96781,1.40901 -3.09327,1.95474 -3.39958,1.64844 z m 6.15681,-5.27602 c 2.05644,-1.75351 4.4391,-4.23408 6.02167,-6.2692 3.00029,-3.85822 5.25656,-8.5041 6.20358,-12.77384 0.86859,-3.9162 0.80236,-6.46932 -0.20974,-8.08736 -0.50031,-0.79977 -1.35658,-1.55626 -2.06428,-1.82364 -1.07528,-0.4063 -1.70203,-0.0181 -3.07548,1.90732 -1.38979,1.94784 -2.33162,3.49945 -3.30812,5.45004 -2.34712,4.68835 -3.88508,9.99312 -4.5279,15.61787 -0.20513,1.79531 -0.28175,2.97368 -0.33575,5.15701 -0.0423,1.71746 -0.036,1.89752 0.0641,1.84058 0.0611,-0.0347 0.61544,-0.49315 1.23187,-1.01878 z m -5.24462,-3.02637 c -0.84178,-5.96838 -2.55204,-11.70857 -4.86129,-16.31587 -1.77353,-3.53847 -4.18442,-6.93772 -5.93829,-8.37261 -1.17464,-0.96103 -3.00757,-1.69813 -3.62827,-1.45911 -0.27283,0.10512 -0.44773,0.43016 -0.63102,1.17276 -0.21174,0.85741 -0.23162,2.83549 -0.0393,3.86116 0.88343,4.70492 3.09753,8.81117 7.3671,13.66283 0.76207,0.86602 7.63856,7.7871 7.73687,7.7871 0.023,0 0.0203,-0.1514 -0.006,-0.33626 z"
       style="fill:#0085ad;stroke-width:0.0187303"
       id="path2155-7" />
    <path
       d="m 124.00184,77.699008 c -0.11975,-0.0875 -0.11866,-0.11631 0.0208,-0.62456 0.19678,-0.71712 0.55883,-1.49326 1.04427,-2.23841 0.55698,-0.85495 0.78569,-1.14796 2.96808,-3.80286 5.34547,-6.50281 7.21627,-9.09026 8.85075,-12.24096 0.98467,-1.89814 1.35779,-3.03193 1.42303,-4.32434 0.0686,-1.35905 -0.25496,-2.33858 -1.05569,-3.19437 -0.51297,-0.5484 -0.90245,-0.82892 -1.47236,-1.06049 -0.86467,-0.35135 -1.81619,-0.35118 -2.58424,5.3e-4 -0.46845,0.21445 -1.23738,0.92718 -1.76417,1.63513 -0.4215,0.56652 -1.71854,2.61611 -2.35194,3.71657 -0.47663,0.82808 -1.56468,2.99123 -1.93605,3.84902 -0.28028,0.64735 -0.56994,0.93843 -1.44698,1.45396 -0.7329,0.43082 -1.41403,0.71312 -1.7698,0.73351 l -0.28315,0.0163 0.0248,-1.34505 c 0.0291,-1.58595 -0.0921,-2.6981 -0.44865,-4.11623 -0.97561,-3.88027 -3.60496,-7.19125 -5.81925,-7.32781 -0.39834,-0.0244 -0.51008,0.0895 -0.93897,0.9591 -1.16957,2.37123 -1.15371,5.93297 0.0424,9.5224 0.6303,1.89153 1.70154,4.06305 3.86239,7.82936 1.59121,2.77351 2.34913,4.20334 2.95408,5.57308 0.57942,1.31197 0.63901,1.54602 0.47218,1.85577 -0.34419,0.63913 -2.58327,1.77829 -3.10319,1.57877 -0.0611,-0.0233 -0.20985,-0.29886 -0.33061,-0.61204 -0.62984,-1.63319 -1.55004,-3.43156 -3.45768,-6.75735 -3.46521,-6.04124 -4.64671,-9.36376 -4.64815,-13.07113 -7.8e-4,-1.49931 0.10508,-2.23015 0.48777,-3.37393 0.44988,-1.34459 1.06614,-2.34072 2.05429,-3.32057 0.90545,-0.89785 1.94116,-1.53728 3.1686,-1.95624 0.56882,-0.19415 0.77365,-0.22704 1.5742,-0.2528 0.67762,-0.0219 1.04616,-1.4e-4 1.39766,0.0821 2.43066,0.56901 4.8319,3.70489 5.64354,7.37017 0.0863,0.38937 0.17076,0.75266 0.18782,0.80732 0.0181,0.057 0.24299,-0.21304 0.52819,-0.63345 2.39181,-3.52586 5.25154,-5.63375 8.5957,-6.33583 0.69609,-0.14615 2.10772,-0.16768 2.69009,-0.0411 1.04743,0.22764 1.97108,0.899 2.46563,1.79207 0.40918,0.73897 0.55477,1.31625 0.59477,2.35809 0.0591,1.53955 -0.2008,2.53443 -1.18419,4.5307 -1.78047,3.61497 -5.25902,8.45207 -10.15636,14.12296 -1.74859,2.02479 -2.55811,3.31001 -2.92985,4.65151 -0.0763,0.27536 -0.17292,0.56463 -0.21483,0.64282 -0.35994,0.67262 -2.74887,1.84521 -3.15468,1.54848 z"
       style="fill:#f5edde;stroke-width:0.0187303"
       id="path2370-0" />
    <path
       d="m 128.3455,18.284548 c -0.0795,-0.14742 0.11841,-0.39329 1.13722,-1.41058 1.53742,-1.5356 1.40397,-1.38633 1.16765,-1.30572 -0.80603,0.27496 -1.96696,0.43319 -2.46767,0.3364 l -0.32419,-0.0627 -0.24747,-1.39356 c -0.58981,-3.32279 -1.27752,-5.59089 -3.56706,-11.7648 -1.42902,-3.85349 -1.92008,-5.25645 -2.39353,-6.83804 -1.34793,-4.503204 -1.91026,-8.313664 -1.66596,-11.288804 0.0677,-0.82595 0.12215,-1.09012 0.45738,-2.22725 0.32984,-1.12003 0.42387,-1.36294 0.71,-1.84201 0.64908,-1.08685 1.45992,-1.84224 2.59521,-2.4178 0.75368,-0.38205 1.33678,-0.56978 2.26401,-0.72883 4.48025,-0.76857 7.10826,1.33127 8.25943,6.59955 0.60402,2.76425 0.83541,7.45636 0.55829,11.320904 -0.0458,0.63644 -0.0827,1.19049 -0.0827,1.23119 4.3e-4,0.0407 0.12589,-0.15447 0.27944,-0.43378 1.36909,-2.492284 2.75742,-4.562694 4.70619,-7.018294 2.43833,-3.07251 4.09819,-4.70182 5.76301,-5.65692 0.96093,-0.55126 1.65613,-0.81298 2.53989,-0.95615 2.5351,-0.41061 4.09654,0.53431 4.81758,2.9158 0.47194,1.55868 0.41203,3.38137 -0.18525,5.63555 -0.50544,1.9075 -1.22635,3.53522 -2.56769,5.797754 -2.51747,4.24641 -7.62112,10.20739 -15.42413,18.01509 -3.01112,3.01298 -2.9684,2.97323 -3.44321,3.20208 -0.81337,0.39196 -2.72769,0.58489 -2.88666,0.29088 z m 4.80811,-5.09423 c 5.05264,-5.14361 9.60784,-10.40437 12.14903,-14.03096 2.70012,-3.8534 4.03739,-7.259244 4.1198,-10.492434 0.0529,-2.08056 -0.69389,-4.07819 -1.73505,-4.64057 l -0.20685,-0.1116 -1.40477,1.52616 c -2.12484,2.30844 -3.17754,3.58058 -4.47293,5.4052 -2.59176,3.65057 -4.51624,7.391084 -6.06283,11.783964 -0.53889,1.53051 -0.57919,1.62112 -0.79428,1.78268 -0.46925,0.3526 -1.83899,0.7023 -2.64409,0.6751 -0.61874,-0.0208 -0.72848,-0.10997 -0.98609,-0.79965 -0.55789,-1.49385 -0.602,-2.45676 -0.25784,-5.63071 0.50419,-4.650514 0.43868,-9.581334 -0.17631,-13.275354 -0.27167,-1.631 -0.57803,-2.66325 -1.04811,-3.52976 -1.15514,-2.12933 -2.77071,-3.52435 -3.69324,-3.18897 -0.28637,0.10402 -0.70837,0.55655 -1.17632,1.26107 -0.3434,0.51702 -0.39353,0.63836 -0.73343,1.77589 -0.30367,1.01592 -0.37469,1.34814 -0.42349,1.97906 -0.22385,2.89253 0.44147,7.08695 1.82602,11.514144 0.46213,1.47766 1.14765,3.4055 2.63421,7.40798 1.17369,3.16014 1.46455,3.99349 2.01011,5.75891 0.54401,1.76047 1.01787,3.68226 1.26139,5.11573 0.1138,0.67029 0.23451,1.22044 0.26822,1.22263 0.0331,0.005 0.72971,-0.67661 1.5468,-1.5084 z"
       style="fill:#be8d0d;stroke-width:0.0187303"
       id="path2508-9" />
    <path
       d="m 35.04708,-7.527256 c -0.0928,-0.0383 -0.34771,-0.2235 -0.56634,-0.41131 -0.21865,-0.18781 -1.5603,-1.27559 -2.98145,-2.41725 -4.7422,-3.80961 -6.30791,-5.17443 -8.49595,-7.40588 -1.4965,-1.52618 -2.01855,-2.15231 -2.90986,-3.48993 -2.34526,-3.51963 -2.91567,-6.9191 -1.6238,-9.67732 1.08471,-2.31598 3.48938,-4.09108 6.37518,-4.70623 0.98505,-0.20996 2.64721,-0.22854 3.53562,-0.0396 2.21043,0.47024 4.14815,2.01781 5.12139,4.09021 0.12499,0.2663 0.24544,0.48482 0.26764,0.48558 0.023,0 0.0824,-0.26141 0.1333,-0.58262 0.13314,-0.83415 0.52204,-2.38786 0.78433,-3.13257 0.3081,-0.87449 0.92678,-2.06403 1.41178,-2.71435 0.49685,-0.66619 1.49362,-1.63184 2.18718,-2.1189 0.68155,-0.47864 1.66078,-0.95263 2.45133,-1.18653 0.77603,-0.22961 2.05024,-0.3124 2.74103,-0.17817 1.84226,0.35811 3.37948,1.73069 4.48103,4.00117 0.92722,1.91117 1.28949,3.54567 1.35856,6.12968 0.13621,5.10216 -1.35113,9.76659 -4.73631,14.85179 -1.03614,1.55639 -2.89972,3.96737 -3.70739,4.79617 -0.75875,0.77862 -2.02306,1.4109 -2.72005,1.36025 -0.16967,-0.0127 -0.32027,-0.0588 -0.33485,-0.10314 -0.0144,-0.0444 0.16569,-0.31519 0.40077,-0.6017 4.74701,-5.78853 7.18559,-10.88371 7.72023,-16.13065 0.39066,-3.83407 -0.78319,-8.36127 -2.73896,-10.56339 -0.97425,-1.09692 -2.12502,-1.72736 -3.23224,-1.77077 l -0.48497,-0.019 -0.24431,0.28317 c -0.31362,0.36329 -1.00206,1.76979 -1.33408,2.72549 -0.52351,1.50691 -0.91225,3.32266 -1.09123,5.097 -0.0413,0.40886 -0.0942,0.90261 -0.11775,1.0973 -0.023,0.19466 -0.051,1.53373 -0.0611,2.97566 -0.011,1.8604 -0.0427,2.66743 -0.10259,2.77913 -0.11179,0.2091 -0.69464,0.66431 -1.24289,0.97093 -0.58668,0.32806 -1.19154,0.53046 -1.58537,0.53046 -0.29065,0 -0.35136,-0.032 -0.65196,-0.34394 -0.93374,-0.96872 -1.29391,-1.74719 -2.36303,-5.10755 -0.45153,-1.41918 -0.92792,-2.43736 -1.4737,-3.14976 -1.01905,-1.33003 -3.06043,-2.42675 -4.76214,-2.55835 -2.25038,-0.17401 -3.23333,1.06472 -3.23768,4.08039 -0.002,1.6845 0.36615,3.18265 1.18645,4.8225 1.67926,3.35691 4.00295,5.65783 13.78755,13.65238 1.11863,0.91399 2.03388,1.7074 2.03388,1.76312 0,0.45776 -1.93861,1.82649 -2.76087,1.94928 -0.13621,0.0205 -0.32375,0.006 -0.41657,-0.0329 z"
       style="fill:#be4e0e;stroke-width:0.0187303"
       id="path2551-3" />
    <path
       d="m 165.18027,104.52259 c -0.0369,-0.0369 -0.0931,-0.10711 -0.12536,-0.15593 -0.0438,-0.0667 -0.088,-0.0889 -0.17672,-0.0889 -0.1353,0 -0.17619,-0.0613 -0.11577,-0.17401 0.0349,-0.0652 0.0248,-0.0951 -0.0734,-0.21932 -0.40179,-0.50794 -1.25085,-1.49767 -2.24926,-2.62201 -1.90405,-2.144142 -2.67695,-3.103282 -3.44928,-4.280402 -0.47843,-0.72919 -0.66269,-1.0535 -1.03536,-1.82219 -0.72038,-1.48591 -1.06005,-2.83011 -1.06047,-4.19641 -3.9e-4,-1.19931 0.25016,-2.07475 0.85594,-2.99086 0.69551,-1.05176 2.09644,-1.97945 3.27535,-2.16887 0.42694,-0.0687 1.15276,-0.0284 1.53182,0.0847 1.29499,0.38657 2.395,1.40577 3.15295,2.92136 0.35985,0.7195 0.56195,1.2723 0.78889,2.15768 0.0756,0.29477 0.14217,0.54081 0.14814,0.54673 0.006,0.006 0.0546,-0.11053 0.10798,-0.25873 0.31339,-0.86751 0.88969,-2.06239 1.29336,-2.68157 0.81926,-1.25662 2.08394,-2.26245 3.1494,-2.50476 0.31307,-0.0713 0.79992,-0.0729 1.06582,-0.003 0.87825,0.22875 1.37497,0.9985 1.59848,2.47703 0.0754,0.49913 0.10424,1.85475 0.0504,2.37945 -0.23189,2.26391 -1.23283,4.53709 -3.10339,7.04784 -0.54629,0.73331 -1.19497,1.53712 -2.2515,2.790062 -0.51438,0.61001 -1.18034,1.41124 -1.47994,1.78048 l -0.54469,0.67136 0.13656,0.18092 c 0.0751,0.0995 0.13657,0.21764 0.13657,0.26247 0,0.18554 -0.6665,0.68521 -1.13421,0.85027 -0.28602,0.10094 -0.40466,0.10512 -0.49244,0.018 z m 1.84063,-3.17834 c 1.08317,-1.28617 1.68603,-2.030622 2.20615,-2.724272 2.0836,-2.77875 3.09044,-5.3357 3.09064,-7.84895 0,-1.08505 -0.22923,-2.19503 -0.60005,-2.90448 -0.32609,-0.62391 -1.02744,-0.93541 -1.49248,-0.6629 -0.2057,0.12066 -0.37238,0.33271 -0.72294,0.9202 -0.93985,1.57508 -1.51521,3.21428 -2.24541,6.39725 -0.13802,0.60135 -0.14814,0.62896 -0.28028,0.76492 -0.26461,0.2722 -1.09585,0.7068 -1.35343,0.70765 -0.1467,0 -0.11902,0.11523 -0.23851,-0.98733 -0.22144,-2.04297 -0.50859,-3.36234 -0.99198,-4.55768 -0.84051,-2.07848 -2.23625,-3.44594 -3.75259,-3.67664 -0.4423,-0.0673 -0.83997,0.0329 -1.1247,0.2836 -0.20679,0.18205 -0.51641,0.64988 -0.66806,1.00944 -0.88873,2.10727 -0.0774,5.37108 2.10794,8.48067 0.67027,0.95369 1.42049,1.86225 3.07899,3.728792 0.57588,0.64812 1.25207,1.42179 1.50265,1.7193 0.25057,0.29747 0.46642,0.53496 0.47964,0.52771 0.0127,-0.008 0.46522,-0.53703 1.00442,-1.17728 z"
       style="fill:#0085ad;stroke-width:0.00917021"
       id="path2590-6" />
    <path
       d="m 103.80195,94.773437 c -0.0472,-0.0472 -0.11955,-0.13729 -0.16062,-0.2 -0.056,-0.0855 -0.11269,-0.11413 -0.2266,-0.11413 -0.17347,0 -0.22588,-0.0787 -0.14851,-0.22316 0.0447,-0.0836 0.0318,-0.12191 -0.0942,-0.28126 -0.51528,-0.65139 -1.60413,-1.92067 -2.88453,-3.36253 -2.44179,-2.7497 -3.43297,-3.9797 -4.42342,-5.48928 -0.61356,-0.93514 -0.84986,-1.35103 -1.32777,-2.33682 -0.92383,-1.90557 -1.35945,-3.62942 -1.35999,-5.38157 -4.8e-4,-1.53804 0.32083,-2.66071 1.0977,-3.83555 0.89192,-1.34881 2.68852,-2.5385 4.2004,-2.7814 0.5475,-0.0881 1.47831,-0.0366 1.96445,0.10853 1.6607,0.49575 3.07138,1.80279 4.04339,3.74643 0.46147,0.92269 0.72066,1.63162 1.01168,2.76706 0.097,0.37803 0.18239,0.69354 0.18995,0.70112 0.008,0.008 0.07,-0.14181 0.13855,-0.33178 0.40189,-1.11252 1.14095,-2.64485 1.65865,-3.43891 1.05062,-1.61153 2.67248,-2.90143 4.03884,-3.21218 0.40151,-0.0914 1.02586,-0.0936 1.36685,-0.006 1.12627,0.29336 1.76328,1.28049 2.04993,3.1766 0.0968,0.64009 0.13367,2.37859 0.0647,3.05145 -0.2974,2.90331 -1.58102,5.81848 -3.97986,9.03833 -0.7006,0.94042 -1.53246,1.97123 -2.88739,3.57804 -0.65964,0.78228 -1.5137,1.80979 -1.8979,2.28331 l -0.69852,0.86099 0.17528,0.23202 c 0.0964,0.12752 0.1751,0.2791 0.1751,0.33659 0,0.23795 -0.85475,0.87873 -1.45455,1.09042 -0.36679,0.1295 -0.51896,0.13476 -0.63153,0.0222 z m 2.36047,-4.07597 c 1.38909,-1.64942 2.16221,-2.60411 2.82923,-3.49367 2.67209,-3.56353 3.96327,-6.84263 3.9635,-10.06567 0,-1.39149 -0.29397,-2.81495 -0.76952,-3.72478 -0.41818,-0.8001 -1.31762,-1.19958 -1.91398,-0.8501 -0.26379,0.15466 -0.47754,0.42667 -0.92712,1.18009 -1.20529,2.01991 -1.94314,4.12206 -2.87957,8.20397 -0.1769,0.7712 -0.18989,0.8066 -0.35943,0.98097 -0.33936,0.34904 -1.40534,0.9064 -1.73567,0.9075 -0.18817,0 -0.15266,0.14778 -0.30587,-1.2662 -0.28397,-2.61995 -0.65221,-4.31193 -1.27214,-5.84487 -1.0779,-2.66548 -2.86782,-4.41915 -4.8124,-4.715 -0.56724,-0.0863 -1.0772,0.0424 -1.44235,0.3637 -0.26519,0.23345 -0.66227,0.83343 -0.85673,1.29454 -1.13974,2.70241 -0.0993,6.88798 2.70328,10.87579 0.85956,1.22305 1.82164,2.38819 3.94854,4.7819 0.73852,0.83115 1.6057,1.82334 1.92704,2.20486 0.32136,0.3815 0.59815,0.68605 0.61513,0.67674 0.0163,-0.009 0.59659,-0.68869 1.28806,-1.50977 z"
       style="fill:#be8d0d;stroke-width:0.0117602"
       id="path2590-6-5" />
    <path
       d="m 181.65842,141.85349 c -0.0259,-0.0655 0.56235,-1.1647 1.48484,-2.77856 0.83946,-1.46873 1.54697,-2.7248 1.57219,-2.7913 0.0326,-0.0855 -0.12915,-0.33402 -0.55179,-0.84951 -3.96398,-4.83237 -7.34886,-10.08547 -10.13995,-15.73648 -1.6036,-3.2468 -2.14781,-4.56882 -2.41009,-5.8546 -0.14145,-0.69363 -0.15882,-1.90994 -0.0354,-2.49884 0.44773,-2.13733 2.61551,-4.18005 5.03175,-4.74142 0.69579,-0.16171 1.86435,-0.16407 2.46937,-0.005 0.97938,0.25756 1.89801,0.87913 2.58696,1.75035 0.84468,1.06824 1.26902,2.09901 2.61347,6.34843 l 0.59035,1.86589 0.74275,-1.44114 c 1.28351,-2.49033 2.26951,-4.19039 3.64823,-6.29036 0.94152,-1.43405 2.7687,-4.01107 3.46331,-4.88465 1.45378,-1.82829 3.55933,-3.45795 5.26199,-4.072712 0.61573,-0.2223 1.68756,-0.31287 2.1662,-0.18309 1.30119,0.352962 1.7848,1.829302 1.59775,4.877712 -0.16767,2.73036 -0.70971,4.93232 -2.00552,8.14534 -1.64425,4.07692 -3.68867,7.99898 -9.55566,18.33181 -1.04569,1.84159 -1.90125,3.37376 -1.90125,3.40471 0,0.0311 0.0636,0.11414 0.14145,0.18438 0.0778,0.0706 0.14146,0.18121 0.14146,0.24603 0,0.17654 -0.43585,0.65135 -0.87667,0.95496 -0.37524,0.25843 -0.4399,0.35564 -1.68584,2.53431 -1.20164,2.10126 -1.32389,2.28732 -1.685,2.56503 -0.94657,0.72793 -2.52912,1.2733 -2.66527,0.91848 z m 5.45103,-9.71481 c 3.86623,-6.76649 6.89643,-12.3764 8.15433,-15.09637 2.14328,-4.63446 3.43675,-9.43912 3.25866,-12.10477 -0.0922,-1.37983 -0.3879,-2.32464 -0.89112,-2.8467 -0.6017,-0.6243 -0.84487,-0.48173 -2.1933,1.286 -3.93009,5.15215 -6.72805,10.03777 -8.98619,15.69109 -0.46044,1.1527 -0.53606,1.29418 -0.83924,1.57034 -0.86033,0.78357 -2.19969,1.5284 -2.67702,1.48867 l -0.26879,-0.0222 -1.42656,-4.51521 c -1.45579,-4.60786 -1.66353,-5.21697 -2.03322,-5.96201 -0.79075,-1.59364 -2.27641,-2.89958 -3.40506,-2.99317 l -0.37535,-0.0311 -0.19244,0.3286 c -0.62477,1.06605 -0.49657,2.85036 0.35907,4.99645 1.77492,4.45202 5.08058,10.33062 8.52131,15.15386 0.82633,1.15838 2.63343,3.53541 2.68705,3.53448 0.02,0 0.15809,-0.2152 0.30806,-0.47781 z"
       style="fill:#be8d0d;stroke-width:0.0187303"
       id="path2649-0" />
    <path
       d="m 84.1473,63.837487 c -6.05968,-5.45508 -8.60166,-10.33729 -8.87514,-17.04604 -0.11757,-2.88537 0.40311,-5.8826 1.51285,-8.70741 1.01219,-2.57647 2.07722,-3.92734 3.84184,-4.87295 2.23965,-1.20016 4.13011,-0.79255 5.0254,1.08357 0.67641,1.41746 0.70363,2.41581 0.24343,8.92177 -0.0579,0.81765 -0.14886,1.90078 -0.20254,2.40695 -0.0535,0.50614 -0.0895,0.92832 -0.0803,0.93816 0.009,0.009 0.2988,-0.30328 0.64319,-0.69578 2.45478,-2.79766 6.2108,-5.45266 8.72838,-6.16985 0.78188,-0.22272 1.87331,-0.22015 2.43864,0.006 0.49387,0.19732 1.01559,0.68602 1.2583,1.17866 0.16333,0.33165 0.17401,0.42318 0.16967,1.45121 -0.006,1.05644 -0.0181,1.14873 -0.33701,2.47773 -1.11523,4.63086 -2.54689,8.29806 -4.72586,12.10543 -1.20505,2.10559 -2.93108,4.61397 -3.61992,5.26067 -0.59325,0.55698 -1.67263,1.09526 -2.32076,1.15737 -0.40707,0.0389 -0.53081,0.0911 -1.07287,0.45121 -0.67517,0.44862 -1.27836,0.70549 -1.65669,0.70549 -0.21118,0 -0.35021,-0.0933 -0.97077,-0.65194 z m 4.6056,-2.73219 c 3.05245,-4.50673 5.27447,-9.60804 6.37992,-14.64686 0.44029,-2.00691 0.49293,-2.85217 0.2224,-3.57166 -0.39342,-1.04658 -1.53351,-1.44601 -2.64406,-0.9263 -0.59975,0.28066 -1.00038,0.55734 -1.71081,1.18158 -1.81893,1.59822 -3.18072,3.23439 -5.57989,6.70397 -0.60895,0.88067 -1.06862,1.23443 -2.46064,1.89371 -0.72063,0.3413 -1.10804,0.42871 -1.17117,0.26422 -0.023,-0.0619 0.0545,-0.80593 0.17365,-1.65365 0.38595,-2.74485 0.83541,-7.6876 0.90939,-10.00096 0.0563,-1.76012 -0.11558,-3.09528 -0.51664,-4.01527 -0.16424,-0.37672 -0.63288,-0.93119 -1.0991,-1.30044 l -0.25928,-0.20543 -0.28493,0.47958 c -0.51858,0.87287 -1.09907,2.44924 -1.49382,4.05664 -0.80669,3.2846 -0.79303,6.89923 0.0385,10.20816 1.11789,4.44792 3.17568,7.64345 7.5288,11.69131 0.77522,0.72086 1.1211,0.99959 1.17991,0.95079 0.0458,-0.038 0.40025,-0.53718 0.78783,-1.10939 z"
       style="fill:#f5edde;stroke-width:0.0187303"
       id="path2688-6" />
    <path
       d="m 72.83863,136.7272 c -2.01694,-1.99647 -3.34562,-2.8716 -7.94304,-5.23165 -2.86152,-1.46898 -4.13677,-2.18013 -5.307,-2.95948 -2.1637,-1.44098 -3.92285,-3.16745 -5.08362,-4.98918 -0.75342,-1.18252 -1.50298,-3.05876 -1.82234,-4.56175 -0.21984,-1.03427 -0.2717,-2.95108 -0.10689,-3.9376 0.36962,-2.2104 1.5147,-3.90897 3.53412,-5.24223 1.53472,-1.01328 3.02034,-1.47434 4.7505,-1.47434 2.14914,0 3.90814,0.73539 5.58428,2.33462 0.95957,0.91554 1.70587,1.95442 2.62483,3.65395 l 0.51547,0.95318 0.11865,-0.4799 c 0.77618,-3.13728 2.71085,-7.96513 3.96535,-9.89527 1.53229,-2.35759 3.94724,-4.19685 6.14644,-4.68116 0.67005,-0.1476 1.85795,-0.14651 2.48684,0.002 0.68297,0.16154 1.41133,0.566 1.9728,1.0955 1.71423,1.61662 2.51731,4.53861 2.71659,9.8839 0.15519,4.16067 -0.91212,7.93659 -3.44159,12.17623 -0.3252,0.54509 -1.09101,1.78747 -1.7018,2.76088 -2.08813,3.32797 -2.9289,4.87006 -3.68601,6.76061 -0.4574,1.14222 -0.67047,1.45045 -1.26008,1.82299 -0.21838,0.13802 -0.4101,0.26187 -0.42637,0.27571 -0.018,0.0144 0.0714,0.15067 0.19476,0.30404 0.12336,0.15357 0.22414,0.33869 0.22414,0.4117 0,0.45374 -1.93593,1.75538 -2.81731,1.89421 l -0.30423,0.0481 -0.93464,-0.92518 z m 3.71553,-5.84905 c 0.51527,-0.9019 1.44313,-2.42727 2.47606,-4.07049 2.43648,-3.87613 3.25291,-5.58151 3.94843,-8.24728 0.47679,-1.82755 0.64089,-3.32868 0.6075,-5.55715 -0.0467,-3.12349 -0.55598,-6.13309 -1.33165,-7.8703 -0.73482,-1.64568 -2.3058,-2.90392 -3.62937,-2.90683 -1.0022,-0.002 -1.59402,0.66762 -2.64896,2.99798 -1.99877,4.41524 -3.33171,8.77829 -4.18151,13.68682 l -0.20771,1.20002 -0.30164,0.30927 c -0.56079,0.57503 -1.91769,1.35963 -2.54262,1.47027 -0.2008,0.0354 -0.2887,0.0144 -0.39207,-0.0875 -0.0731,-0.0733 -0.52684,-1.02395 -1.00797,-2.1127 -1.12962,-2.55608 -1.8436,-3.96878 -2.53887,-5.02354 -0.9017,-1.36797 -1.77001,-2.29183 -2.81065,-2.99064 -1.55421,-1.04361 -4.02654,-1.69119 -4.77898,-1.25173 -0.53853,0.31452 -0.9138,1.11061 -1.2489,2.64956 -0.19819,0.91087 -0.17979,2.95402 0.0363,3.96433 0.69324,3.24352 2.42947,6.02684 5.10665,8.18631 1.569,1.26561 3.02387,2.14411 6.72527,4.06112 3.72213,1.92767 5.2405,2.8472 6.93555,4.20001 l 0.3165,0.25264 0.57255,-1.14697 c 0.31495,-0.63082 0.71816,-1.40176 0.89608,-1.71328 z"
       style="fill:#be8d0d;stroke-width:0.0187303"
       id="path2013-1-6" />
    <path
       d="m 148.00334,92.009898 c -0.0681,-0.0681 -0.0673,-0.10821 0.003,-0.21703 0.0658,-0.0998 0.16768,-0.1798 0.78701,-0.6182 0.24393,-0.17257 0.43777,-0.31964 0.43079,-0.32661 -0.008,-0.008 -0.0729,0.009 -0.14633,0.0346 -0.0734,0.0261 -0.18787,0.0514 -0.25405,0.0566 -0.1038,0.008 -0.12173,-4.5e-4 -0.1306,-0.063 -0.009,-0.0626 -0.0295,-0.0723 -0.15411,-0.0723 h -0.14381 l -0.53682,-0.55235 c -0.51414,-0.52899 -1.92123,-1.92276 -2.58951,-2.56494 -0.87828,-0.84404 -2.12346,-2.20958 -2.76882,-3.03648 -0.32796,-0.42021 -1.00134,-1.42525 -1.22722,-1.83168 -0.63806,-1.14803 -1.04172,-2.24284 -1.24993,-3.3902 -0.076,-0.41882 -0.0767,-1.27488 -0.001,-1.60299 0.125,-0.54362 0.31399,-0.87485 0.74498,-1.30519 0.35679,-0.35623 0.69694,-0.5857 1.17155,-0.79032 0.49011,-0.2113 0.75787,-0.26881 1.23805,-0.26584 0.4889,0.003 0.77724,0.0678 1.1886,0.26686 1.19451,0.57817 2.58972,2.39706 3.62098,4.72064 0.4482,1.00985 0.94863,2.41161 1.21212,3.39535 0.0711,0.2651 0.14651,0.5471 0.16786,0.62663 l 0.0388,0.14452 0.045,-0.16062 c 0.60917,-2.17767 1.60402,-4.46918 2.59102,-5.96828 0.9724,-1.47687 2.23554,-2.54241 3.44317,-2.90457 0.40133,-0.1203 0.92571,-0.12825 1.2433,-0.0185 0.62921,0.21738 1.1173,0.78581 1.31588,1.53242 0.0874,0.32831 0.11775,1.20428 0.0604,1.73117 -0.49579,4.54383 -3.36736,8.71514 -8.5582,12.43194 -0.89324,0.63959 -1.40413,0.88732 -1.54318,0.74827 z m 2.79476,-2.39497 c 0.93349,-0.79597 2.01503,-1.92196 2.73341,-2.84577 1.36193,-1.75136 2.38612,-3.86027 2.81599,-5.79842 0.39428,-1.77771 0.36424,-2.93663 -0.0951,-3.67112 -0.2271,-0.36304 -0.61578,-0.70642 -0.93704,-0.82779 -0.48811,-0.18444 -0.77261,-0.008 -1.39604,0.8658 -0.63088,0.88416 -1.05842,1.58849 -1.50167,2.4739 -1.06544,2.1282 -1.76356,4.5362 -2.05534,7.08943 -0.0931,0.81496 -0.12789,1.34986 -0.15248,2.34093 -0.0192,0.77961 -0.0163,0.86137 0.029,0.8355 0.0276,-0.0163 0.27935,-0.22386 0.55918,-0.46246 z m -2.38071,-1.37374 c -0.38209,-2.70924 -1.15844,-5.31491 -2.20666,-7.40627 -0.80507,-1.60625 -1.89944,-3.14924 -2.69558,-3.80059 -0.53321,-0.43625 -1.36524,-0.77084 -1.64699,-0.66234 -0.12371,0.0478 -0.20322,0.19526 -0.28643,0.53236 -0.096,0.38921 -0.10512,1.2871 -0.018,1.75269 0.40102,2.1357 1.40606,3.99965 3.34414,6.20197 0.34594,0.39312 3.46739,3.5348 3.51202,3.5348 0.011,0 0.009,-0.0687 -0.002,-0.15266 z"
       style="fill:#0085ad;stroke-width:0.00850227"
       id="path2155-7-8-9" />
    <path
       d="m 167.95393,-25.231946 c -0.11269,-0.0823 -0.1116,-0.10942 0.019,-0.58746 0.18508,-0.67456 0.52562,-1.40463 0.98229,-2.10554 0.52389,-0.80418 0.73902,-1.07982 2.79184,-3.57709 5.02815,-6.11676 6.78789,-8.55061 8.32533,-11.51424 0.92623,-1.78548 1.27718,-2.85196 1.33854,-4.06765 0.0644,-1.27837 -0.23983,-2.19973 -0.993,-3.00471 -0.48252,-0.51586 -0.84887,-0.77972 -1.38497,-0.99754 -0.81333,-0.33047 -1.70837,-0.33034 -2.4308,4.9e-4 -0.44063,0.20161 -1.16397,0.87215 -1.65944,1.53806 -0.39649,0.5329 -1.61655,2.46083 -2.21232,3.49593 -0.44832,0.77894 -1.4718,2.81364 -1.8211,3.62051 -0.26367,0.60892 -0.53614,0.88272 -1.36111,1.36766 -0.68937,0.40524 -1.33007,0.67078 -1.66471,0.68994 l -0.26639,0.0163 0.0244,-1.26517 c 0.0273,-1.4918 -0.0866,-2.53796 -0.42202,-3.87188 -0.9177,-3.64991 -3.39096,-6.76432 -5.47381,-6.8928 -0.37467,-0.0244 -0.47979,0.0843 -0.88322,0.90218 -1.10013,2.23047 -1.08519,5.58077 0.0397,8.95709 0.5929,1.77925 1.60051,3.82181 3.63308,7.36454 1.49675,2.60888 2.20968,3.95383 2.77874,5.24225 0.54501,1.23407 0.60105,1.45425 0.44412,1.7456 -0.32375,0.60118 -2.42991,1.6727 -2.91897,1.48505 -0.0576,-0.0217 -0.19727,-0.28113 -0.31096,-0.5757 -0.59246,-1.53627 -1.45803,-3.22784 -3.25243,-6.35621 -3.25948,-5.68261 -4.37085,-8.80786 -4.37221,-12.29512 -7.2e-4,-1.41032 0.099,-2.09777 0.45882,-3.17368 0.42317,-1.26476 1.00285,-2.20171 1.93236,-3.12341 0.85168,-0.84456 1.82588,-1.44602 2.98047,-1.8401 0.53505,-0.18265 0.72772,-0.21354 1.48075,-0.23793 0.6374,-0.0217 0.98404,-1.1e-4 1.31468,0.0772 2.28638,0.53526 4.54505,3.48496 5.30852,6.93263 0.081,0.36628 0.16064,0.70797 0.17673,0.7594 0.0163,0.0537 0.22873,-0.20026 0.49683,-0.59585 2.24984,-3.31654 4.93975,-5.2993 8.08541,-5.9597 0.65475,-0.1374 1.98259,-0.15771 2.53039,-0.0387 0.98524,0.21408 1.85407,0.84565 2.31925,1.68569 0.38485,0.69509 0.52186,1.2381 0.55942,2.21811 0.0555,1.44815 -0.18888,2.38396 -1.11384,4.2617 -1.67477,3.40039 -4.94682,7.95032 -9.5534,13.28456 -1.64481,1.90461 -2.40625,3.11348 -2.75592,4.37534 -0.0718,0.25908 -0.16262,0.53114 -0.20216,0.60468 -0.33862,0.63267 -2.58568,1.73566 -2.96743,1.45654 z"
       style="fill:#0085ad;stroke-width:0.0176184"
       id="path2370-0-7" />
    <path
       d="m 99.91533,126.40185 c -0.0501,-0.0926 0.0743,-0.24695 0.71403,-0.88566 0.96528,-0.96415 0.88147,-0.87043 0.7331,-0.81983 -0.50606,0.17257 -1.23496,0.272 -1.54934,0.21123 l -0.20356,-0.0394 -0.15537,-0.87496 c -0.37034,-2.08624 -0.80211,-3.51032 -2.23963,-7.38669 -0.89724,-2.41947 -1.20557,-3.30034 -1.50283,-4.29336 -0.84632,-2.82741 -1.19939,-5.21984 -1.04597,-7.08783 0.0427,-0.51859 0.0767,-0.68445 0.28716,-1.39841 0.20709,-0.70324 0.26614,-0.85576 0.44579,-1.15653 0.40753,-0.6824 0.91662,-1.1567 1.62943,-1.51806 0.47321,-0.23988 0.83932,-0.35774 1.42149,-0.4576 2.81298,-0.48256 4.46304,0.83585 5.18581,4.14362 0.37924,1.73557 0.52453,4.68159 0.35053,7.10798 -0.0287,0.39961 -0.052,0.74748 -0.052,0.77304 2.8e-4,0.0257 0.079,-0.097 0.17546,-0.27237 0.85959,-1.56483 1.73127,-2.86474 2.95484,-4.40654 1.53094,-1.92911 2.57314,-2.9521 3.61839,-3.55177 0.60334,-0.3461 1.03983,-0.51044 1.59471,-0.60034 1.5917,-0.2578 2.57207,0.33548 3.02479,1.83074 0.29634,0.97864 0.25869,2.12303 -0.11632,3.53835 -0.31731,1.19766 -0.76996,2.21964 -1.61213,3.64021 -1.58064,2.66615 -4.78504,6.40884 -9.68427,11.31103 -1.89057,1.89175 -1.86375,1.86679 -2.16187,2.01047 -0.51069,0.2461 -1.71261,0.36722 -1.81241,0.18263 z m 3.01885,-3.19849 c 3.17236,-3.22949 6.03239,-6.53254 7.62792,-8.80953 1.69532,-2.41941 2.53496,-4.55782 2.58668,-6.58784 0.0333,-1.3063 -0.43564,-2.56055 -1.08936,-2.91365 l -0.12988,-0.0702 -0.882,0.95824 c -1.33411,1.44938 -1.99507,2.24811 -2.8084,3.39373 -1.62728,2.29207 -2.83558,4.6406 -3.80663,7.39874 -0.33835,0.96093 -0.36365,1.01781 -0.49871,1.11927 -0.29462,0.22137 -1.15462,0.44095 -1.66013,0.42386 -0.38848,-0.0127 -0.45738,-0.0691 -0.61915,-0.50208 -0.35025,-0.93792 -0.37795,-1.54251 -0.16189,-3.53529 0.31659,-2.91992 0.27546,-6.01579 -0.11051,-8.33514 -0.17039,-1.02405 -0.36293,-1.67215 -0.65805,-2.21619 -0.72528,-1.33695 -1.73963,-2.21283 -2.31886,-2.00227 -0.1798,0.0653 -0.44477,0.34945 -0.73859,0.79179 -0.21561,0.32461 -0.24707,0.40081 -0.46048,1.11502 -0.19065,0.63787 -0.23527,0.84644 -0.26589,1.24258 -0.14055,1.81613 0.27717,4.44965 1.1465,7.22931 0.29013,0.92777 0.72056,2.13819 1.6539,4.6512 0.73694,1.98416 0.91956,2.50738 1.2621,3.61584 0.34157,1.10533 0.63908,2.31196 0.79197,3.21196 0.0714,0.42086 0.14724,0.76627 0.16839,0.76765 0.0208,0.003 0.45819,-0.42481 0.97119,-0.94707 z"
       style="fill:#be8d0d;stroke-width:0.0117602"
       id="path2508-9-9" />
    <path
       d="m 130.62311,191.36865 c -0.0944,-0.1027 -0.23908,-0.29878 -0.32121,-0.4352 -0.11215,-0.1866 -0.22529,-0.24839 -0.45313,-0.24839 -0.34688,0 -0.45167,-0.1713 -0.29698,-0.48562 0.0894,-0.18191 0.0637,-0.26532 -0.18847,-0.61207 -1.03041,-1.41751 -3.20776,-4.17973 -5.76813,-7.31745 -4.88278,-5.98383 -6.86485,-8.66053 -8.8454,-11.94566 -1.22693,-2.03497 -1.69947,-2.93999 -2.65513,-5.08531 -1.84737,-4.14684 -2.71847,-7.89817 -2.71954,-11.71123 -9.5e-4,-3.34703 0.64155,-5.79017 2.19506,-8.3468 1.78355,-2.93525 5.37614,-5.5242 8.3994,-6.05285 1.09484,-0.19176 2.95618,-0.0796 3.92827,0.23629 3.32089,1.07883 6.14177,3.92319 8.08549,8.15291 0.9228,2.00797 1.44108,3.55068 2.02303,6.0216 0.19395,0.82266 0.3647,1.50924 0.37985,1.52572 0.0144,0.0144 0.13981,-0.30859 0.27706,-0.72201 0.80364,-2.42101 2.28149,-5.7556 3.31676,-7.48367 2.10091,-3.50691 5.34408,-6.31398 8.07638,-6.99027 0.80287,-0.19871 2.05138,-0.2034 2.73324,-0.0127 2.25216,0.63841 3.52602,2.78656 4.0992,6.91284 0.19349,1.393 0.26729,5.17619 0.12952,6.64049 -0.5947,6.31809 -3.16151,12.66201 -7.95843,19.66901 -1.40096,2.04646 -3.06442,4.28973 -5.77384,7.78639 -1.31906,1.70238 -3.02691,3.93841 -3.79517,4.96888 l -1.39684,1.87365 0.35016,0.50495 c 0.1928,0.27753 0.35012,0.60735 0.35012,0.73245 0,0.51786 -1.70923,1.91227 -2.90861,2.37293 -0.73346,0.28185 -1.03776,0.29326 -1.26286,0.0484 z m 4.72016,-8.87 c 2.77774,-3.58943 4.32373,-5.66699 5.65754,-7.60284 5.34331,-7.75486 7.92523,-14.89072 7.92576,-21.9047 0,-3.02809 -0.58787,-6.12576 -1.53878,-8.10569 -0.83624,-1.74119 -2.63485,-2.61053 -3.82738,-1.85001 -0.52752,0.33656 -0.95496,0.92855 -1.85395,2.56812 -2.41014,4.39566 -3.8856,8.9703 -5.75821,17.85325 -0.35373,1.6782 -0.37971,1.75523 -0.71874,2.13471 -0.6786,0.75964 -2.81022,1.97253 -3.47077,1.97489 -0.3763,0 -0.30528,0.32161 -0.61166,-2.75545 -0.56783,-5.70149 -1.30422,-9.3835 -2.54387,-12.71946 -2.15543,-5.8005 -5.73468,-9.61682 -9.62324,-10.26065 -1.13428,-0.18783 -2.15403,0.0922 -2.88423,0.79152 -0.53026,0.50796 -1.32427,1.81364 -1.7132,2.81711 -2.27908,5.8809 -0.19848,14.98945 5.4057,23.66764 1.71883,2.66154 3.64269,5.19709 7.89583,10.40615 1.4768,1.80877 3.21088,3.96796 3.85345,4.79823 0.6426,0.8302 1.19607,1.49292 1.23006,1.47266 0.0324,-0.0197 1.19296,-1.49869 2.57569,-3.28548 z"
       style="fill:#f5edde;stroke-width:0.0245323"
       id="path2590-6-0" />
    <path
       d="m 95.74074,156.59875 c -0.0163,-0.0411 0.35308,-0.73127 0.93225,-1.74458 0.5271,-0.92215 0.9713,-1.71079 0.98714,-1.75257 0.0205,-0.0537 -0.081,-0.20969 -0.34645,-0.53336 -2.48884,-3.03407 -4.61408,-6.33228 -6.36649,-9.88036 -1.00686,-2.03854 -1.34856,-2.8686 -1.51322,-3.6759 -0.0888,-0.4355 -0.0996,-1.19919 -0.022,-1.56894 0.28111,-1.34195 1.64219,-2.6245 3.15926,-2.97695 0.43686,-0.1016 1.17055,-0.10292 1.5504,-0.003 0.61494,0.16172 1.19173,0.55197 1.62428,1.099 0.53035,0.6707 0.79678,1.31788 1.64091,3.98595 l 0.37065,1.17153 0.46635,-0.90486 c 0.80588,-1.56357 1.42495,-2.63099 2.2906,-3.94949 0.59113,-0.90039 1.73837,-2.51841 2.17449,-3.0669 0.91276,-1.1479 2.23478,-2.17111 3.30382,-2.55709 0.38657,-0.13965 1.05952,-0.19645 1.36004,-0.11505 0.817,0.22162 1.12064,1.14855 1.00319,3.06253 -0.10524,1.71432 -0.44559,3.09685 -1.25918,5.11418 -1.03238,2.55975 -2.31598,5.02227 -5.99967,11.50987 -0.65655,1.1563 -1.19371,2.11827 -1.19371,2.13772 0,0.0196 0.04,0.0717 0.0888,0.11577 0.0489,0.0444 0.0888,0.11377 0.0888,0.15447 0,0.11088 -0.27365,0.40894 -0.55044,0.59957 -0.23557,0.16226 -0.27618,0.22331 -1.05847,1.59122 -0.75447,1.31931 -0.83121,1.43612 -1.05795,1.61047 -0.59431,0.45704 -1.58794,0.79947 -1.67343,0.5767 z m 3.42249,-6.0996 c 2.42748,-4.24843 4.33004,-7.77069 5.11982,-9.47846 1.3457,-2.9098 2.1578,-5.92648 2.04601,-7.60014 -0.0579,-0.86636 -0.24355,-1.45958 -0.55951,-1.78735 -0.3778,-0.39197 -0.53046,-0.30247 -1.3771,0.80742 -2.46756,3.23486 -4.22429,6.30236 -5.6421,9.8519 -0.28908,0.72373 -0.33657,0.81256 -0.52693,0.98594 -0.54017,0.49198 -1.38112,0.95962 -1.6808,0.9347 l -0.16877,-0.0144 -0.89567,-2.83495 c -0.91405,-2.8931 -1.04449,-3.27553 -1.2766,-3.74334 -0.49649,-1.00057 -1.42929,-1.82053 -2.13792,-1.8793 l -0.23566,-0.0195 -0.12083,0.20631 c -0.39227,0.66933 -0.31177,1.78964 0.22545,3.1371 1.1144,2.79524 3.18992,6.48622 5.35021,9.51455 0.51884,0.72732 1.65345,2.21975 1.68711,2.21919 0.0127,0 0.0993,-0.13512 0.19341,-0.29999 z"
       style="fill:#be8d0d;stroke-width:0.0117602"
       id="path2649-0-2" />
    <circle
       id="path6831"
       style="fill:#f5edde;stroke:#be8d0d;stroke-width:0.478587"
       cx="150.50282"
       cy="-5.0435448"
       r="0.02248192" />
    <circle
       id="path6833"
       style="fill:#f5edde;stroke:#be8d0d;stroke-width:0.478587"
       cx="150.50282"
       cy="-5.0435448"
       r="0.02248192" />
    <path
       style="fill:none;fill-rule:evenodd;stroke:#000000;stroke-width:0.478587px;stroke-linecap:butt;stroke-linejoin:miter;stroke-opacity:1"
       d="m 84.14714,63.83774 v 0"
       id="path8931"
       inkscape:connector-type="polyline"
       inkscape:connector-curvature="0" />
    <path
       style="fill:none;fill-rule:evenodd;stroke:#000000;stroke-width:0.478587px;stroke-linecap:butt;stroke-linejoin:miter;stroke-opacity:1"
       d="m 84.14714,63.83774 v 0"
       id="path9137"
       inkscape:connector-type="polyline"
       inkscape:connector-curvature="0" />
  </g>
</svg>
