<?xml version="1.0" encoding="UTF-8" standalone="no"?>
<!-- Created with Inkscape (http://www.inkscape.org/) -->

<svg
   width="210mm"
   height="297mm"
   viewBox="0 0 210 297"
   version="1.1"
   id="svg2022"
   inkscape:version="1.1.1 (eb90963e84, 2021-10-02)"
   sodipodi:docname="working-images.svg"
   xmlns:inkscape="http://www.inkscape.org/namespaces/inkscape"
   xmlns:sodipodi="http://sodipodi.sourceforge.net/DTD/sodipodi-0.dtd"
   xmlns="http://www.w3.org/2000/svg"
   xmlns:svg="http://www.w3.org/2000/svg">
  <sodipodi:namedview
     id="namedview2024"
     pagecolor="#ffffff"
     bordercolor="#666666"
     borderopacity="1.0"
     inkscape:pageshadow="2"
     inkscape:pageopacity="0.0"
     inkscape:pagecheckerboard="0"
     inkscape:document-units="mm"
     showgrid="false"
     inkscape:zoom="1.0633188"
     inkscape:cx="379.47228"
     inkscape:cy="284.48666"
     inkscape:window-width="1920"
     inkscape:window-height="1016"
     inkscape:window-x="3840"
     inkscape:window-y="27"
     inkscape:window-maximized="1"
     inkscape:current-layer="layer1"
     inkscape:connector-spacing="20" />
  <defs
     id="defs2019">
    <inkscape:path-effect
       effect="skeletal"
       id="path-effect3773"
       is_visible="true"
       lpeversion="1"
       pattern="m -40.184294,30.303799 h 0.337562"
       copytype="single_stretched"
       prop_scale="1"
       scale_y_rel="false"
       spacing="0"
       normal_offset="0"
       tang_offset="0"
       prop_units="false"
       vertical_pattern="false"
       hide_knot="false"
       fuse_tolerance="0" />
    <inkscape:path-effect
       effect="skeletal"
       id="path-effect3544"
       is_visible="true"
       lpeversion="1"
       pattern="m 78.338171,3.618507 h 0.337562"
       copytype="single_stretched"
       prop_scale="1"
       scale_y_rel="false"
       spacing="0"
       normal_offset="0"
       tang_offset="0"
       prop_units="false"
       vertical_pattern="false"
       hide_knot="false"
       fuse_tolerance="0" />
    <inkscape:path-effect
       effect="vonkoch"
       id="path-effect3423"
       is_visible="true"
       lpeversion="1"
       ref_path="m 104.47151,65.068611 h 44.50385"
       generator="m 104.47151,84.451899 h 14.83461 m 14.83462,0 h 14.83462"
       similar_only="false"
       nbgenerations="1"
       drawall="true"
       maxComplexity="1000" />
    <inkscape:path-effect
       effect="gears"
       id="path-effect3421"
       is_visible="true"
       lpeversion="1"
       teeth="44"
       phi="5.3"
       min_radius="5.3" />
    <inkscape:path-effect
       effect="knot"
       id="path-effect3419"
       is_visible="true"
       lpeversion="1"
       switcher_size="17.7"
       interruption_width="3"
       prop_to_stroke_width="true"
       add_stroke_width="inkscape_1.0_and_up"
       both="false"
       inverse_width="false"
       add_other_stroke_width="inkscape_1.0_and_up"
       crossing_points_vector="" />
    <inkscape:path-effect
       effect="bend_path"
       id="path-effect3083"
       is_visible="true"
       lpeversion="1"
       bendpath="m 104.47151,65.068611 h 44.50385"
       prop_scale="1.92"
       scale_y_rel="false"
       vertical="false"
       hide_knot="false" />
  </defs>
  <g
     inkscape:label="Layer 1"
     inkscape:groupmode="layer"
     id="layer1">
    <path
       d="m -95.294856,85.532653 c -2.074,-2.05294 -3.44025,-2.95282 -8.167724,-5.37966 -2.94243,-1.51051 -4.25375,-2.24176 -5.4571,-3.04316 -2.2249,-1.481735 -4.03381,-3.257056 -5.22737,-5.130296 -0.77476,-1.21598 -1.5455,-3.145279 -1.87392,-4.690779 -0.22599,-1.06354 -0.27948,-3.034551 -0.10983,-4.048982 0.38006,-2.272919 1.55755,-4.019529 3.63407,-5.39051 1.57814,-1.041929 3.10578,-1.516039 4.8849,-1.516039 2.2099,0 4.01865,0.75618 5.74221,2.40066 0.98672,0.941419 1.75411,2.00968 2.699094,3.757279 l 0.53001,0.98017 0.1221,-0.4935 c 0.79814,-3.225999 2.78754,-8.19038 4.0775,-10.17513 1.57563,-2.42429 4.0589,-4.31556 6.320288,-4.81356 0.689001,-0.15173 1.910511,-0.15063 2.5572,0.002 0.70226,0.16608 1.45124,0.58198 2.0286,1.12646 1.762692,1.66236 2.588512,4.66699 2.793421,10.163489 0.15952,4.278331 -0.93793,8.161052 -3.538929,12.520602 -0.33442,0.56052 -1.121892,1.83805 -1.749931,2.83897 -2.147199,3.422095 -3.01176,5.007795 -3.790269,6.951845 -0.47035,1.17455 -0.68944,1.4915 -1.29574,1.87454 -0.22442,0.14179 -0.42169,0.26939 -0.43839,0.28358 -0.0168,0.0142 0.0734,0.15486 0.20019,0.31265 0.12678,0.15779 0.23053,0.34827 0.23053,0.42332 0,0.4666 -1.99069,1.80505 -2.89702,1.94781 l -0.31282,0.0493 -0.96107,-0.95133 z m 3.82064,-6.01447 c 0.52981,-0.92745 1.48393,-2.49596 2.546061,-4.185665 2.505419,-3.985761 3.344947,-5.73935 4.060108,-8.480532 0.490281,-1.879258 0.659019,-3.422829 0.62471,-5.714338 -0.0481,-3.211862 -0.571741,-6.306572 -1.36934,-8.092901 -0.755579,-1.69222 -2.37099,-2.986051 -3.73202,-2.989051 -1.030519,-0.002 -1.639099,0.686511 -2.723879,3.08277 -2.05528,4.540112 -3.42594,9.026591 -4.29978,14.073952 l -0.2136,1.233969 -0.31016,0.31801 c -0.57666,0.591289 -1.97192,1.398091 -2.61453,1.511851 -0.20649,0.0365 -0.29687,0.0164 -0.40315,-0.0899 -0.0753,-0.0753 -0.541754,-1.052941 -1.036514,-2.172452 -1.16157,-2.628368 -1.89574,-4.081039 -2.61066,-5.16563 -0.92721,-1.40667 -1.82006,-2.35667 -2.89017,-3.07523 -1.59816,-1.073129 -4.14042,-1.73903 -4.91413,-1.287148 -0.55378,0.323419 -0.93965,1.142029 -1.28422,2.72451 -0.20395,0.93663 -0.18472,3.037559 0.0373,4.076478 0.71286,3.335242 2.49818,6.197282 5.25109,8.417851 1.61338,1.30138 3.10939,2.204771 6.91548,4.175966 3.827406,1.98223 5.388726,2.92776 7.131716,4.31882 l 0.32545,0.25976 0.58877,-1.1794 c 0.32383,-0.64866 0.73847,-1.44143 0.92143,-1.76174 z"
       style="fill:#be8d0d;stroke-width:0.0192601"
       id="path2013" />
    <path
       d="m -43.763052,62.950847 c 0,-0.0831 0.175659,-0.52063 0.390358,-0.9723 l 0.390361,-0.82123 -0.39714,0.008 -0.397139,0.008 -0.170572,-0.58635 c -0.39489,-1.35743 -1.116319,-2.56187 -2.21538,-3.6986 -1.472919,-1.52341 -3.23446,-2.6259 -6.881749,-4.30707 -4.03552,-1.86014 -5.677591,-2.87256 -7.486002,-4.61552 -2.75232,-2.652713 -4.39706,-6.336083 -4.54052,-10.168433 -0.0707,-1.88972 0.202811,-3.34819 0.885762,-4.72261 0.663889,-1.33603 1.499269,-2.25082 2.84222,-3.11238 3.717398,-2.38487 7.8641,-2.05128 11.829061,0.9516 0.709459,0.5373 2.389679,2.20915 3.012929,2.99791 0.688679,0.87158 1.39841,1.92739 1.99122,2.96221 l 0.50846,0.88758 0.2036,-0.52361 c 1.476391,-3.79704 3.592399,-6.83546 6.21271,-8.92095 2.448722,-1.94892 5.037052,-3.2273 7.634092,-3.77049 1.18248,-0.24733 2.89198,-0.27869 3.86188,-0.0709 3.00317,0.64355 4.67393,2.34864 5.3409,5.45063 0.2111,0.9818 0.22931,3.25687 0.0351,4.38273 -0.60398,3.50087 -2.2346,6.65596 -5.24282,10.1444 -1.01371,1.175533 -2.37223,2.552843 -4.77714,4.843183 -3.71722,3.54014 -5.30046,5.20386 -6.676971,7.01638 -1.201201,1.58166 -2.150603,3.13938 -2.683031,4.40214 -0.394992,0.93677 -0.82431,1.36781 -1.854589,1.86199 -1.097791,0.52655 -1.815571,0.67444 -1.815571,0.37406 z m 4.016938,-6.47599 c 1.235559,-1.48666 2.726931,-3.01973 5.634453,-5.79199 4.01436,-3.82762 5.65783,-5.646093 7.15208,-7.913683 1.03066,-1.56405 1.61885,-2.73115 2.16513,-4.29604 1.27904,-3.66396 1.08117,-7.03119 -0.55492,-9.44322 -0.47694,-0.70314 -1.38114,-1.48672 -2.13492,-1.85013 -0.93644,-0.45148 -1.37606,-0.55442 -2.55706,-0.59875 -1.13365,-0.0426 -1.85075,0.0551 -2.85424,0.38869 -2.18947,0.72785 -3.792162,2.02519 -5.330671,4.31503 -1.557132,2.31754 -2.628123,5.02124 -3.751012,9.46935 -0.368731,1.46066 -0.43848,1.66428 -0.64466,1.88202 -0.578619,0.61106 -2.28963,1.55931 -2.83279,1.56994 l -0.294569,0.006 -0.264281,-0.87353 c -0.68171,-2.25329 -1.561651,-4.17629 -2.671631,-5.83847 -2.514518,-3.76546 -6.039559,-6.42894 -9.227658,-6.9723 -1.683721,-0.28699 -2.524501,-0.0247 -2.97579,0.92847 -0.893181,1.88644 -1.016842,4.57313 -0.33695,7.32092 1.047769,4.23466 3.617749,7.447183 7.953748,9.942373 0.937602,0.53953 1.590392,0.8655 3.238731,1.61721 3.633869,1.65718 5.67182,2.91589 7.18934,4.44039 0.70793,0.7112 1.54717,1.88854 1.849101,2.59405 l 0.17979,0.42011 0.181988,-0.23409 c 0.100092,-0.12876 0.49915,-0.6157 0.886791,-1.08212 z"
       style="fill:#be4e0e;stroke-width:0.0192601"
       id="path2098" />
    <path
       d="m -55.906681,113.38295 c -0.154381,-0.15437 -0.152521,-0.24508 0.01011,-0.49162 0.149101,-0.22611 0.379871,-0.40737 1.7828,-1.40041 0.552551,-0.39111 0.99169,-0.72404 0.975881,-0.73986 -0.01579,-0.0158 -0.165049,0.0193 -0.331631,0.0781 -0.166579,0.0588 -0.425559,0.11644 -0.575509,0.12816 -0.23505,0.0184 -0.275852,-10e-4 -0.295899,-0.14248 -0.02019,-0.14198 -0.0666,-0.16378 -0.349001,-0.16378 h -0.32575 l -1.21607,-1.25122 c -1.164669,-1.19834 -4.352189,-4.35561 -5.866,-5.81038 -1.989554,-1.91196 -4.810274,-5.005344 -6.272192,-6.878494 -0.742903,-0.95186 -2.268321,-3.22861 -2.780001,-4.14927 -1.445411,-2.60066 -2.359771,-5.08071 -2.831451,-7.67979 -0.172179,-0.9488 -0.17374,-2.88797 -0.003,-3.63129 0.28297,-1.23139 0.71126,-1.98175 1.68758,-2.95659 0.80822,-0.80698 1.578772,-1.3268 2.65388,-1.7903 1.11031,-0.47868 1.716852,-0.60893 2.804601,-0.60224 1.107469,0.007 1.760649,0.15346 2.692509,0.60451 2.70591,1.30973 5.866442,5.43012 8.202552,10.69365 1.015309,2.28763 2.148919,5.463 2.74584,7.69146 0.160859,0.60055 0.332028,1.23932 0.380349,1.41949 l 0.0879,0.32757 0.10182,-0.36397 c 1.380011,-4.93308 3.633581,-10.12401 5.869468,-13.51988 2.20273,-3.34551 5.06413,-5.75934 7.799771,-6.57976 0.9091,-0.27264 2.097029,-0.29021 2.816439,-0.0417 1.42534,0.49246 2.531031,1.78011 2.980841,3.47142 0.1978,0.74371 0.266991,2.72799 0.13675,3.92157 -1.12313,10.29308 -7.628081,19.742394 -19.38684,28.161994 -2.02347,1.44886 -3.180768,2.01002 -3.495728,1.69505 z m 6.33094,-5.42527 c 2.114628,-1.80309 4.564638,-4.35381 6.19199,-6.4465 3.085158,-3.967364 5.405239,-8.744644 6.379038,-13.135144 0.893172,-4.02698 0.825082,-6.6523 -0.215678,-8.31611 -0.51444,-0.8224 -1.394952,-1.60028 -2.122652,-1.87523 -1.105709,-0.41779 -1.750179,-0.0181 -3.162469,1.96127 -1.42912,2.00294 -2.39757,3.59844 -3.401711,5.60419 -2.413507,4.82096 -3.994958,10.27578 -4.655959,16.059614 -0.210968,1.84609 -0.289859,3.0578 -0.345228,5.30288 -0.0436,1.76604 -0.0371,1.9512 0.0659,1.89265 0.0628,-0.0357 0.632839,-0.50712 1.26672,-1.04762 z m -5.39296,-3.11195 c -0.865579,-6.137204 -2.62423,-12.039744 -4.99877,-16.777364 -1.823691,-3.63857 -4.302782,-7.13394 -6.106272,-8.60942 -1.20786,-0.98821 -3.092648,-1.74617 -3.730897,-1.50039 -0.280461,0.108 -0.460373,0.44232 -0.648862,1.20594 -0.217649,0.88166 -0.23826,2.91568 -0.0402,3.97036 0.908442,4.83801 3.185182,9.06039 7.575471,14.04928 0.783651,0.89051 7.85463,8.007364 7.955741,8.007364 0.02339,0 0.02061,-0.1556 -0.006,-0.34577 z"
       style="fill:#0085ad;stroke-width:0.0192601"
       id="path2155" />
    <path
       d="m -95.241055,124.63154 c -0.123082,-0.09 -0.122103,-0.11959 0.0213,-0.64222 0.202311,-0.73742 0.57463,-1.53551 1.073808,-2.30173 0.57272,-0.87912 0.807892,-1.18043 3.052012,-3.91042 5.49666,-6.68674 7.420408,-9.34737 9.1011,-12.58719 1.012539,-1.95183 1.396199,-3.1177 1.463271,-4.44665 0.0705,-1.397492 -0.262321,-2.404722 -1.085523,-3.284722 -0.5275,-0.56391 -0.927989,-0.85236 -1.51402,-1.09049 -0.889129,-0.36128 -1.867569,-0.36112 -2.657329,5.5e-4 -0.481701,0.22053 -1.272418,0.95342 -1.81406,1.68138 -0.433441,0.58255 -1.767171,2.690122 -2.41848,3.821702 -0.490101,0.85149 -1.608939,3.07582 -1.990809,3.95788 -0.28819,0.66565 -0.586071,0.96497 -1.487911,1.49509 -0.753621,0.44299 -1.454029,0.73328 -1.81986,0.75424 l -0.291169,0.0167 0.0254,-1.38309 c 0.0299,-1.63081 -0.0947,-2.77442 -0.46134,-4.23264 -1.003211,-3.990042 -3.70693,-7.394672 -5.983855,-7.535102 -0.4096,-0.0253 -0.5245,0.0921 -0.96552,0.98625 -1.20265,2.43829 -1.18635,6.100782 0.0436,9.791732 0.64813,1.94504 1.74967,4.17795 3.971626,8.0508 1.636228,2.85195 2.41558,4.32223 3.037639,5.73071 0.59582,1.34907 0.657071,1.58976 0.485531,1.90827 -0.35392,0.6572 -2.656339,1.82857 -3.190959,1.62342 -0.0628,-0.0241 -0.215762,-0.3073 -0.339953,-0.62935 -0.647657,-1.6794 -1.593884,-3.52862 -3.555484,-6.94848 -3.56322,-6.21212 -4.77814,-9.62861 -4.77962,-13.44083 -8e-4,-1.54172 0.10804,-2.293242 0.50157,-3.469382 0.4626,-1.38262 1.09629,-2.40691 2.11239,-3.41448 0.93106,-0.92324 1.99607,-1.58076 3.25822,-2.01157 0.58491,-0.19965 0.79554,-0.23347 1.618726,-0.25996 0.696788,-0.0224 1.075759,-1.4e-4 1.437198,0.0845 2.49941,0.58511 4.968571,3.80969 5.803181,7.578642 0.0887,0.40037 0.175572,0.77393 0.193129,0.83014 0.01831,0.0586 0.249881,-0.21908 0.543132,-0.65137 2.459461,-3.625582 5.400069,-5.793092 8.838819,-6.515032 0.71579,-0.15028 2.167333,-0.17249 2.766183,-0.0423 1.077057,0.2341 2.02683,0.92442 2.535348,1.84276 0.420759,0.75987 0.57049,1.35348 0.61159,2.42478 0.0608,1.58311 -0.206619,2.606122 -1.21765,4.658842 -1.83085,3.71724 -5.40778,8.69115 -10.443631,14.52244 -1.798051,2.08206 -2.630469,3.40362 -3.012729,4.78307 -0.0785,0.28314 -0.177871,0.5806 -0.220911,0.66101 -0.370139,0.69163 -2.826628,1.89739 -3.243911,1.59227 z"
       style="fill:#000000;stroke-width:0.0192601"
       id="path2370" />
    <path
       d="m -34.751466,147.94618 c -0.08191,-0.15147 0.121765,-0.40443 1.169373,-1.45048 1.580897,-1.57901 1.443665,-1.42555 1.200653,-1.34265 -0.828809,0.28272 -2.022566,0.44546 -2.537446,0.34592 l -0.333369,-0.0645 -0.254384,-1.43298 c -0.606496,-3.41674 -1.313644,-5.74901 -3.667943,-12.09753 -1.469441,-3.9625 -1.974405,-5.40514 -2.461235,-7.03147 -1.386063,-4.63057 -1.964298,-8.54879 -1.713069,-11.60809 0.06974,-0.8493 0.12557,-1.12096 0.470308,-2.29024 0.339167,-1.15172 0.435862,-1.4015 0.730089,-1.89411 0.667429,-1.1176 1.501187,-1.89436 2.668602,-2.48618 0.774998,-0.39288 1.374583,-0.58591 2.328046,-0.74945 4.606956,-0.79031 7.309327,1.36891 8.493042,6.78622 0.621104,2.84241 0.859044,7.66726 0.574087,11.6411 -0.04699,0.65444 -0.08513,1.22416 -0.08485,1.26601 4.49e-4,0.0419 0.129591,-0.15884 0.287321,-0.44606 1.407791,-2.56277 2.835395,-4.69174 4.839274,-7.2168 2.507299,-3.1594 4.21414,-4.83479 5.926024,-5.81692 0.988109,-0.56684 1.702974,-0.83597 2.61173,-0.98318 2.606806,-0.42223 4.212408,0.54941 4.9538427,2.99826 0.4853077,1.60276 0.42369,3.47701 -0.1905112,5.79495 -0.5197215,1.96144 -1.2610285,3.63522 -2.6403185,5.96175 -2.588663,4.3665 -7.836679,10.49608 -15.860378,18.52462 -3.096292,3.09821 -3.052367,3.05733 -3.540612,3.29266 -0.836372,0.40305 -2.804827,0.60142 -2.96829,0.2991 z m 4.944099,-5.23831 c 5.195546,-5.2891 9.879561,-10.69867 12.492634,-14.42782 2.776495,-3.96238 4.151604,-7.46455 4.236345,-10.7892 0.05452,-2.13941 -0.713489,-4.19353 -1.784121,-4.77183 l -0.212726,-0.11482 -1.444527,1.56934 c -2.184909,2.37372 -3.267418,3.68184 -4.59945,5.55808 -2.665059,3.75382 -4.643979,7.60013 -6.234308,12.11725 -0.554114,1.5738 -0.595557,1.66696 -0.816736,1.83309 -0.482528,0.36258 -1.891019,0.72219 -2.718875,0.69421 -0.63624,-0.0214 -0.749092,-0.11312 -1.013998,-0.82228 -0.573651,-1.53609 -0.619004,-2.52624 -0.265166,-5.78995 0.518452,-4.78206 0.451096,-9.85234 -0.181193,-13.65083 -0.279209,-1.67714 -0.59438,-2.73859 -1.077734,-3.62961 -1.187814,-2.18956 -2.849092,-3.62402 -3.797705,-3.27917 -0.29443,0.10703 -0.728416,0.5723 -1.2096,1.29674 -0.353121,0.53163 -0.404648,0.65642 -0.754175,1.82612 -0.312252,1.04466 -0.385293,1.38627 -0.435469,2.03504 -0.230082,2.97435 0.453952,7.2874 1.87767,11.83981 0.475194,1.51945 1.180101,3.50182 2.708706,7.6175 1.20691,3.24952 1.505997,4.10644 2.066978,5.9218 0.559403,1.81027 1.046656,3.78642 1.297058,5.26041 0.117077,0.68924 0.241192,1.25497 0.275805,1.25722 0.03402,0.006 0.75037,-0.69575 1.590575,-1.55107 z"
       style="fill:#be8d0d;stroke-width:0.0192601"
       id="path2508" />
    <path
       d="m -68.293835,152.20641 c -0.0955,-0.0395 -0.357521,-0.22984 -0.582351,-0.42296 -0.224829,-0.19314 -1.60443,-1.31167 -3.06578,-2.48563 -4.876339,-3.91736 -6.486329,-5.32079 -8.736258,-7.61534 -1.538841,-1.56937 -2.075641,-2.21319 -2.992171,-3.58865 -2.411581,-3.61918 -2.998131,-7.1148 -1.669722,-9.95103 1.11542,-2.38149 3.588071,-4.2068 6.555521,-4.83934 1.012909,-0.2159 2.722052,-0.235 3.6356,-0.0407 2.272961,0.48355 4.265491,2.07489 5.26624,4.2059 0.128601,0.27382 0.252481,0.49853 0.275291,0.49932 0.02281,0 0.0846,-0.26882 0.137229,-0.59912 0.13675,-0.85773 0.536792,-2.45539 0.806529,-3.22115 0.31678,-0.89924 0.95297,-2.12243 1.451691,-2.79114 0.5109,-0.68503 1.535869,-1.67799 2.24903,-2.17883 0.70082,-0.49217 1.707769,-0.97956 2.520669,-1.22008 0.798,-0.23611 2.108222,-0.32125 2.81858,-0.18317 1.89437,0.36823 3.475041,1.77963 4.607751,4.11432 0.95346,1.96524 1.325981,3.64598 1.397011,6.30306 0.140239,5.2465 -1.389341,10.04284 -4.870281,15.27186 -1.06543,1.60043 -2.981759,4.07958 -3.812241,4.93183 -0.780209,0.80065 -2.080311,1.45081 -2.797009,1.39874 -0.174381,-0.0127 -0.329332,-0.0604 -0.34432,-0.10604 -0.015,-0.0457 0.170439,-0.32409 0.412091,-0.61873 4.881298,-5.95225 7.388849,-11.19153 7.938598,-16.58689 0.40172,-3.9425 -0.805328,-8.59776 -2.816429,-10.86215 -1.0018,-1.12797 -2.185091,-1.77622 -3.32363,-1.82086 l -0.4987,-0.0196 -0.251351,0.29118 c -0.32249,0.37356 -1.030409,1.81983 -1.37182,2.80257 -0.53831,1.54953 -0.93804,3.41664 -1.1221,5.24118 -0.0424,0.4204 -0.097,0.92813 -0.12123,1.12832 -0.02429,0.20018 -0.0525,1.5771 -0.0628,3.05982 -0.0132,1.91302 -0.0438,2.74289 -0.105301,2.85774 -0.115059,0.215 -0.714298,0.6831 -1.278049,0.99838 -0.603259,0.33735 -1.22521,0.54547 -1.63021,0.54547 -0.298868,0 -0.361289,-0.0329 -0.67041,-0.35365 -0.96014,-0.99613 -1.330498,-1.79662 -2.429858,-5.25203 -0.464291,-1.45931 -0.954151,-2.50629 -1.515401,-3.23884 -1.04784,-1.36766 -3.14697,-2.49539 -4.896829,-2.6307 -2.31403,-0.17899 -3.324751,1.09482 -3.329231,4.19579 -0.0021,1.73215 0.3765,3.27266 1.22001,4.9589 1.726739,3.45186 4.116141,5.81787 14.177509,14.03852 1.150281,0.93986 2.09142,1.7557 2.09142,1.81301 0,0.47067 -1.993461,1.87814 -2.838969,2.0044 -0.140131,0.0209 -0.33289,0.006 -0.428348,-0.0338 z"
       style="fill:#be4e0e;stroke-width:0.0192601"
       id="path2551" />
    <path
       d="m -108.45328,170.15512 c -0.0774,-0.0774 -0.19582,-0.22482 -0.26315,-0.32755 -0.0919,-0.14029 -0.18446,-0.18688 -0.37113,-0.18688 -0.2841,0 -0.36993,-0.12891 -0.24332,-0.36547 0.0732,-0.13682 0.0522,-0.19973 -0.15424,-0.46064 -0.84389,-1.0668 -2.62716,-3.14558 -4.72413,-5.50698 -3.99904,-4.50332 -5.62235,-6.51777 -7.24446,-8.99009 -1.00484,-1.53149 -1.39185,-2.21261 -2.17455,-3.8271 -1.51299,-3.12086 -2.22644,-5.94405 -2.22732,-8.81366 -7.9e-4,-2.51892 0.52544,-4.35759 1.79775,-6.28166 1.46076,-2.20903 4.40311,-4.15742 6.87918,-4.55527 0.89668,-0.14408 2.42115,-0.0598 3.21728,0.17784 2.71984,0.81191 5.03015,2.95253 6.62209,6.13572 0.75576,1.51116 1.18024,2.67218 1.65688,4.53175 0.1587,0.61913 0.29868,1.13583 0.31108,1.14824 0.0124,0.0124 0.11453,-0.23212 0.22696,-0.54335 0.65819,-1.82205 1.86857,-4.3316 2.71643,-5.6321 1.72066,-2.63925 4.376856,-4.75178 6.614617,-5.26075 0.657569,-0.14957 1.680088,-0.15302 2.238539,-0.008 1.844551,0.48044 2.887821,2.09712 3.35729,5.20249 0.15848,1.04833 0.218871,3.89551 0.105982,4.9975 -0.487051,4.75488 -2.589321,9.52921 -6.518,14.80254 -1.147411,1.54014 -2.509793,3.22839 -4.728818,5.85993 -1.08034,1.28117 -2.47906,2.96395 -3.10828,3.73949 l -1.14402,1.41007 0.2869,0.38 c 0.15779,0.20899 0.28689,0.45707 0.28689,0.55123 0,0.38973 -1.39986,1.43915 -2.38217,1.78583 -0.60072,0.21201 -0.84992,0.22077 -1.03428,0.0364 z m 3.86585,-6.67539 c 2.27499,-2.70136 3.54116,-4.26489 4.633569,-5.72177 4.376189,-5.83618 6.490829,-11.2065 6.491228,-16.48507 0,-2.27891 -0.48146,-4.61018 -1.260271,-6.10024 -0.684879,-1.31037 -2.15795,-1.96463 -3.13463,-1.39226 -0.432049,0.25319 -0.782119,0.69879 -1.518399,1.9327 -1.973957,3.30811 -3.182357,6.75092 -4.716007,13.43605 -0.28975,1.26301 -0.31099,1.32098 -0.58866,1.60657 -0.55578,0.57166 -2.30159,1.48447 -2.8426,1.48627 -0.30817,0 -0.24994,0.2421 -0.50094,-2.07372 -0.46506,-4.29083 -1.06817,-7.06186 -2.08344,-9.57244 -1.76533,-4.36536 -4.69677,-7.23745 -7.88152,-7.72199 -0.92897,-0.14133 -1.76417,0.0693 -2.36219,0.59568 -0.43431,0.38231 -1.08462,1.36491 -1.40312,2.1201 -1.86659,4.42587 -0.16274,11.2808 4.42729,17.81183 1.40774,2.00305 2.9834,3.91125 6.46673,7.83153 1.20953,1.36123 2.62974,2.9862 3.15602,3.61104 0.52629,0.62478 0.97961,1.12355 1.00741,1.10831 0.0278,-0.0151 0.97708,-1.12789 2.10953,-2.47259 z"
       style="fill:#0085ad;stroke-width:0.0192601"
       id="path2590" />
    <path
       d="m -86.845722,202.26206 c -0.0258,-0.0672 0.578271,-1.19765 1.52682,-2.85717 0.86323,-1.51026 1.590728,-2.80186 1.616671,-2.87025 0.0334,-0.088 -0.132591,-0.34346 -0.567402,-0.87353 -4.076099,-4.96905 -7.556708,-10.37072 -10.426728,-16.18157 -1.648982,-3.33864 -2.208591,-4.69806 -2.478271,-6.02021 -0.14547,-0.71324 -0.163139,-1.96394 -0.0363,-2.5695 0.46038,-2.19778 2.6895,-4.29829 5.17408,-4.87554 0.715449,-0.16623 1.917049,-0.16858 2.53918,-0.005 1.007099,0.26484 1.95172,0.90398 2.660139,1.79987 0.868579,1.09844 1.30492,2.15837 2.687402,6.52799 l 0.607039,1.91866 0.763759,-1.4819 c 1.319811,-2.56076 2.333702,-4.30892 3.751421,-6.4683 0.96814,-1.4746 2.846999,-4.12453 3.561271,-5.0228 1.494888,-1.87999 3.660008,-3.55575 5.410837,-4.1879 0.633122,-0.22859 1.735251,-0.32172 2.227432,-0.18821 1.338019,0.36296 1.835298,1.88106 1.642959,5.01568 -0.172281,2.80759 -0.729779,5.07184 -2.06225,8.37572 -1.690761,4.19223 -3.793,8.22522 -9.825928,18.85029 -1.075262,1.89372 -1.955012,3.46919 -1.955012,3.50104 0,0.0319 0.0655,0.1172 0.14559,0.18967 0.0801,0.0725 0.145582,0.18629 0.145582,0.25296 0,0.18157 -0.44817,0.66975 -0.901462,0.98195 -0.38585,0.26574 -0.45234,0.3657 -1.733519,2.60601 -1.235641,2.16068 -1.361331,2.35201 -1.732661,2.63757 -0.973338,0.74852 -2.60065,1.3093 -2.74066,0.94445 z m 5.605209,-9.98961 c 3.975581,-6.95787 7.091481,-12.72643 8.384971,-15.52334 2.20392,-4.76554 3.533938,-9.7061 3.350849,-12.44716 -0.0948,-1.41884 -0.398899,-2.39038 -0.916339,-2.92721 -0.618752,-0.64195 -0.868762,-0.49535 -2.25535,1.32239 -4.041241,5.29786 -6.918349,10.32168 -9.240351,16.13489 -0.473451,1.1853 -0.551209,1.33079 -0.862978,1.61475 -0.884661,0.80573 -2.261912,1.57162 -2.752741,1.53078 l -0.276461,-0.023 -1.466889,-4.64291 c -1.496991,-4.73819 -1.710589,-5.36453 -2.090729,-6.13064 -0.813142,-1.63872 -2.340811,-2.9816 -3.501372,-3.07784 l -0.385969,-0.032 -0.198001,0.33787 c -0.64244,1.09624 -0.510598,2.93099 0.369221,5.1378 1.82512,4.57793 5.22428,10.62282 8.76232,15.58247 0.84972,1.19115 2.707931,3.63539 2.763059,3.63446 0.02,0 0.16256,-0.22142 0.31676,-0.4913 z"
       style="fill:#be8d0d;stroke-width:0.0192601"
       id="path2649" />
    <path
       d="m -49.960502,178.96766 c -6.23109,-5.60935 -8.84494,-10.62966 -9.12615,-17.52817 -0.12095,-2.96698 0.41453,-6.04898 1.55565,-8.95369 1.04081,-2.64935 2.13596,-4.03841 3.95048,-5.01077 2.30301,-1.23412 4.24695,-0.81498 5.16754,1.1142 0.69553,1.45757 0.72354,2.48415 0.25025,9.17414 -0.0595,0.84077 -0.15317,1.95453 -0.20821,2.47502 -0.055,0.52046 -0.0922,0.95459 -0.0826,0.96469 0.01,0.0101 0.30725,-0.31186 0.6614,-0.71545 2.52421,-2.87679 6.38645,-5.6069 8.97526,-6.34437 0.80396,-0.22902 1.92627,-0.22638 2.50759,0.006 0.50784,0.20291 1.04431,0.70543 1.29391,1.212 0.16803,0.34103 0.17904,0.43516 0.17463,1.49228 -0.005,1.0863 -0.0174,1.18121 -0.34657,2.54781 -1.14678,4.76183 -2.61892,8.53278 -4.85952,12.4478 -1.23914,2.16516 -3.01397,4.74448 -3.72229,5.40948 -0.61003,0.57272 -1.71995,1.12625 -2.38641,1.1901 -0.4186,0.0401 -0.54582,0.0936 -1.1032,0.46397 -0.69429,0.46133 -1.31452,0.72543 -1.70358,0.72543 -0.21725,0 -0.3601,-0.0959 -0.9982,-0.67037 z m 4.73589,-2.80945 c 3.13875,-4.63421 5.42364,-9.87981 6.56035,-15.06114 0.45274,-2.06367 0.50687,-2.93283 0.22875,-3.67268 -0.40456,-1.0762 -1.57688,-1.48691 -2.71885,-0.95251 -0.61672,0.28859 -1.02866,0.57312 -1.75919,1.215 -1.87039,1.64343 -3.27071,3.32586 -5.7377,6.89358 -0.62619,0.90559 -1.09886,1.26937 -2.53027,1.94729 -0.741,0.35094 -1.13939,0.44082 -1.20429,0.2717 -0.0245,-0.0635 0.056,-0.82873 0.17853,-1.70043 0.39687,-2.82249 0.85906,-7.90503 0.93513,-10.28382 0.0579,-1.80991 -0.11877,-3.18284 -0.53127,-4.12885 -0.1689,-0.38738 -0.65078,-0.95753 -1.13019,-1.33723 l -0.26671,-0.21125 -0.29299,0.49316 c -0.53322,0.89755 -1.13014,2.51852 -1.53606,4.17137 -0.82951,3.37751 -0.81548,7.09438 0.0396,10.49687 1.14949,4.57374 3.26549,7.85966 7.74174,12.022 0.79715,0.74126 1.15284,1.02788 1.21328,0.97769 0.047,-0.039 0.41158,-0.55237 0.8101,-1.14075 z"
       style="fill:#000000;stroke-width:0.0192601"
       id="path2688" />
    <path
       d="m -17.384443,64.80459 c -0.700103,-0.693 -1.161297,-0.99676 -2.757112,-1.81597 -0.993253,-0.50989 -1.435905,-0.75673 -1.84211,-1.02726 -0.751042,-0.50017 -1.361662,-1.09945 -1.764562,-1.73179 -0.26153,-0.41047 -0.521703,-1.06173 -0.632565,-1.58343 -0.07628,-0.35901 -0.09434,-1.02435 -0.03708,-1.36678 0.128294,-0.76725 0.52577,-1.35684 1.226724,-1.81963 0.53272,-0.351718 1.048394,-0.51176 1.648957,-0.51176 0.745979,0 1.356544,0.25526 1.938353,0.81037 0.333079,0.31779 0.592121,0.67839 0.91111,1.26832 l 0.178912,0.33087 0.04121,-0.16659 c 0.269422,-1.08898 0.940968,-2.764763 1.37641,-3.434739 0.531873,-0.818349 1.370131,-1.45677 2.13349,-1.624876 0.232581,-0.05122 0.644916,-0.05085 0.863214,6.56e-4 0.237056,0.05606 0.489884,0.196454 0.684778,0.38025 0.595018,0.56115 0.873784,1.575399 0.942953,3.430809 0.05385,1.4442 -0.31661,2.75486 -1.194609,4.22648 -0.112887,0.18921 -0.378707,0.62046 -0.59071,0.95833 -0.724813,1.15517 -1.016656,1.69044 -1.279451,2.34668 -0.158772,0.39648 -0.232729,0.50347 -0.437393,0.63277 -0.07576,0.0479 -0.142346,0.0909 -0.147983,0.0957 -0.0056,0.005 0.02478,0.0523 0.06758,0.10554 0.04279,0.0533 0.07782,0.11756 0.07782,0.14289 0,0.15751 -0.671981,0.60932 -0.977924,0.65751 l -0.105596,0.0166 -0.324421,-0.32113 z m 1.289704,-2.03026 c 0.178844,-0.31307 0.500918,-0.84254 0.859453,-1.41292 0.845735,-1.34544 1.129128,-1.93739 1.370539,-2.86271 0.1655,-0.63436 0.22246,-1.15541 0.210878,-1.92894 -0.01624,-1.0842 -0.192997,-2.128859 -0.462237,-2.731856 -0.255055,-0.57123 -0.800356,-1.007977 -1.259788,-1.00899 -0.347865,-6.56e-4 -0.553299,0.231739 -0.919479,1.040626 -0.693784,1.53257 -1.156467,3.04704 -1.451443,4.75083 l -0.0721,0.41654 -0.104698,0.10735 c -0.194659,0.1996 -0.665645,0.47194 -0.882566,0.51035 -0.0697,0.0123 -0.100212,0.005 -0.136089,-0.0303 -0.02542,-0.0254 -0.182874,-0.35544 -0.349886,-0.73334 -0.392102,-0.88724 -0.63993,-1.37761 -0.88126,-1.74372 -0.31299,-0.47484 -0.614383,-0.79552 -0.975611,-1.03808 -0.539479,-0.36225 -1.397649,-0.58703 -1.658824,-0.4345 -0.186936,0.10918 -0.317191,0.38551 -0.433505,0.9197 -0.06885,0.31617 -0.06235,1.02536 0.01259,1.37606 0.240634,1.12585 0.843291,2.09197 1.772568,2.84155 0.544617,0.43929 1.049613,0.74424 2.334405,1.40964 1.291988,0.66913 1.819031,0.9883 2.407398,1.45787 l 0.109859,0.0877 0.198747,-0.39812 c 0.109312,-0.21896 0.249279,-0.48657 0.311039,-0.5947 z"
       style="fill:#be8d0d;stroke-width:0.00650148"
       id="path2013-1" />
    <path
       d="m 150.48873,39.345765 c 0,-0.04468 0.0944,-0.279908 0.20987,-0.522742 l 0.20987,-0.441522 -0.21352,0.0043 -0.2135,0.0043 -0.0917,-0.315241 c -0.21231,-0.729803 -0.60018,-1.377352 -1.19107,-1.988498 -0.79189,-0.81904 -1.73896,-1.411778 -3.69987,-2.315634 -2.16965,-1.000078 -3.05248,-1.54439 -4.02474,-2.481468 -1.47975,-1.426195 -2.36402,-3.406507 -2.44115,-5.466914 -0.0381,-1.01598 0.1091,-1.800104 0.47622,-2.539042 0.35694,-0.718297 0.80606,-1.21012 1.52808,-1.673325 1.9986,-1.282191 4.22802,-1.102842 6.35972,0.511614 0.38143,0.288871 1.28478,1.187717 1.61986,1.611783 0.37025,0.468591 0.75183,1.036233 1.07054,1.592587 l 0.27338,0.477196 0.10941,-0.281512 c 0.79376,-2.041423 1.93141,-3.674985 3.34017,-4.796219 1.31653,-1.047808 2.7081,-1.735111 4.10436,-2.027148 0.63574,-0.132975 1.55484,-0.149826 2.07629,-0.03811 1.6146,0.345996 2.51287,1.262713 2.87145,2.930454 0.11356,0.527849 0.12327,1.751007 0.0188,2.35631 -0.32472,1.882192 -1.20139,3.57848 -2.81871,5.453989 -0.54501,0.632011 -1.27541,1.372502 -2.56838,2.60387 -1.9985,1.903304 -2.8497,2.797779 -3.58977,3.772254 -0.64581,0.850358 -1.15623,1.687843 -1.44249,2.366746 -0.21236,0.50364 -0.44317,0.735383 -0.9971,1.001073 -0.5902,0.283091 -0.9761,0.362602 -0.9761,0.201107 z m 2.15965,-3.48172 c 0.66427,-0.799281 1.4661,-1.623514 3.02929,-3.113979 2.15825,-2.057863 3.04185,-3.035544 3.84521,-4.25468 0.55412,-0.840889 0.87035,-1.468362 1.16404,-2.309703 0.68766,-1.969875 0.58129,-3.780217 -0.29834,-5.07701 -0.25641,-0.378032 -0.74255,-0.799313 -1.1478,-0.994696 -0.50347,-0.242732 -0.73983,-0.298075 -1.37477,-0.321908 -0.6095,-0.0229 -0.99503,0.02962 -1.53454,0.208973 -1.17715,0.391317 -2.0388,1.088813 -2.86597,2.319912 -0.83715,1.245992 -1.41296,2.699598 -2.01667,5.091059 -0.19823,0.785302 -0.23574,0.894776 -0.34659,1.01184 -0.31109,0.328528 -1.23098,0.83834 -1.52301,0.844055 l -0.15831,0.0032 -0.14207,-0.469641 c -0.36651,-1.211448 -0.83961,-2.245321 -1.43636,-3.138968 -1.3519,-2.024446 -3.24709,-3.456426 -4.96112,-3.748556 -0.90523,-0.1543 -1.35727,-0.01322 -1.59988,0.499178 -0.48022,1.014218 -0.5467,2.458678 -0.18117,3.935986 0.56332,2.276704 1.94503,4.003875 4.27622,5.345376 0.50409,0.29007 0.85504,0.465324 1.74125,0.869469 1.95369,0.89096 3.04937,1.567687 3.86525,2.387312 0.38061,0.382366 0.83182,1.015345 0.99415,1.394653 l 0.0967,0.225866 0.0978,-0.125856 c 0.0538,-0.06922 0.26835,-0.331022 0.47677,-0.581785 z"
       style="fill:#be4e0e;stroke-width:0.0103549"
       id="path2098-2" />
    <path
       d="m 123.07945,85.466003 c -0.083,-0.083 -0.082,-0.131764 0.005,-0.264314 0.0801,-0.12157 0.20423,-0.219015 0.9585,-0.752909 0.29707,-0.210275 0.53316,-0.389269 0.52467,-0.397774 -0.008,-0.0084 -0.0887,0.01035 -0.17831,0.04198 -0.0895,0.03162 -0.22879,0.06261 -0.30941,0.0689 -0.1263,0.0099 -0.14828,-5.37e-4 -0.15911,-0.07659 -0.0112,-0.07632 -0.0358,-0.08804 -0.18764,-0.08804 h -0.17513 l -0.6538,-0.672701 c -0.62618,-0.644277 -2.33989,-2.341738 -3.15378,-3.123874 -1.06965,-1.027938 -2.58616,-2.691048 -3.37214,-3.69812 -0.39942,-0.511754 -1.21953,-1.735815 -1.49462,-2.230794 -0.77711,-1.398207 -1.2687,-2.73157 -1.52231,-4.128928 -0.0925,-0.510107 -0.0935,-1.552674 -0.002,-1.95231 0.15211,-0.662038 0.38241,-1.06546 0.9073,-1.589565 0.43454,-0.433861 0.84881,-0.713335 1.42682,-0.962529 0.59695,-0.257355 0.92305,-0.327383 1.50786,-0.323785 0.59541,0.0038 0.94659,0.0825 1.44759,0.325005 1.45479,0.704158 3.15401,2.919423 4.40998,5.749283 0.54587,1.229912 1.15533,2.937103 1.47626,4.135203 0.0865,0.322877 0.17851,0.666301 0.20449,0.763168 l 0.0473,0.176113 0.0548,-0.195684 c 0.74194,-2.652198 1.95354,-5.443025 3.15563,-7.268767 1.18427,-1.798664 2.72266,-3.096422 4.19344,-3.537509 0.48877,-0.146577 1.12742,-0.156021 1.51421,-0.02243 0.76631,0.264765 1.36077,0.957051 1.60261,1.866357 0.10639,0.399845 0.1435,1.466663 0.0736,2.108375 -0.60384,5.533925 -4.10112,10.614207 -10.42305,15.140883 -1.08789,0.778959 -1.71009,1.080658 -1.87943,0.911319 z m 3.40374,-2.916818 c 1.13689,-0.969404 2.45412,-2.340762 3.32903,-3.465867 1.65869,-2.132993 2.90605,-4.701428 3.4296,-7.061916 0.4802,-2.165047 0.44358,-3.576512 -0.11595,-4.471034 -0.27659,-0.442153 -0.74997,-0.860366 -1.14122,-1.00819 -0.59446,-0.224618 -0.94095,-0.0097 -1.70025,1.054446 -0.76834,1.076852 -1.28902,1.934649 -1.82887,3.013011 -1.29759,2.59192 -2.14784,5.524624 -2.50322,8.634216 -0.1134,0.992524 -0.15576,1.643981 -0.18561,2.851016 -0.0234,0.949485 -0.0199,1.049035 0.0354,1.017556 0.0338,-0.01919 0.34025,-0.272647 0.68104,-0.563238 z m -2.89945,-1.673094 c -0.46537,-3.299576 -1.41087,-6.47299 -2.68752,-9.020104 -0.98048,-1.956223 -2.31332,-3.835457 -3.28294,-4.628729 -0.64939,-0.531295 -1.66271,-0.9388 -2.00586,-0.806662 -0.15083,0.05807 -0.24752,0.237808 -0.34885,0.648355 -0.11706,0.474012 -0.12805,1.567573 -0.0217,2.134607 0.4884,2.601085 1.71245,4.871186 4.07284,7.553391 0.42131,0.478769 4.22292,4.30504 4.27727,4.30504 0.0127,0 0.0112,-0.08365 -0.003,-0.185898 z"
       style="fill:#0085ad;stroke-width:0.0103549"
       id="path2155-7" />
    <path
       d="m 94.067223,82.246551 c -0.0662,-0.04839 -0.0656,-0.0643 0.0115,-0.345282 0.10879,-0.396463 0.30895,-0.825544 0.57732,-1.237492 0.30792,-0.472645 0.43436,-0.63464 1.64088,-2.102379 2.9552,-3.595028 3.989457,-5.025478 4.893067,-6.767319 0.54437,-1.049373 0.75064,-1.676185 0.78671,-2.390676 0.0379,-0.75134 -0.14095,-1.292863 -0.58363,-1.765983 -0.28359,-0.303177 -0.49891,-0.458258 -0.81398,-0.586286 -0.47803,-0.194236 -1.004067,-0.19415 -1.428677,2.96e-4 -0.25898,0.118561 -0.68408,0.512593 -0.97531,0.903969 -0.23302,0.3132 -0.95008,1.446303 -1.30025,2.054682 -0.2635,0.457791 -0.86502,1.653669 -1.07033,2.127897 -0.15495,0.357877 -0.31509,0.518802 -0.79995,0.803813 -0.40518,0.238167 -0.78174,0.394236 -0.97842,0.405506 l -0.15654,0.0089 0.0137,-0.743597 c 0.0161,-0.876782 -0.0509,-1.491626 -0.24803,-2.275617 -0.539363,-2.145187 -1.992978,-3.975637 -3.217131,-4.051137 -0.220215,-0.01354 -0.281989,0.04952 -0.519098,0.530242 -0.646587,1.310912 -0.637824,3.279995 0.02344,5.264381 0.348457,1.045723 0.940684,2.246215 2.135289,4.328396 0.879689,1.53331 1.2987,2.323784 1.63314,3.081033 0.32033,0.725307 0.35327,0.85471 0.26104,1.025953 -0.19028,0.353334 -1.428141,0.983104 -1.715573,0.872808 -0.03377,-0.0129 -0.116012,-0.165216 -0.182775,-0.33836 -0.348199,-0.902905 -0.856926,-1.897112 -1.911552,-3.73575 -1.915711,-3.339855 -2.568895,-5.17668 -2.569692,-7.226267 -4.3e-4,-0.828883 0.05809,-1.232925 0.269662,-1.865259 0.24871,-0.743347 0.589404,-1.294043 1.135696,-1.835747 0.50057,-0.496367 1.073157,-0.849873 1.751734,-1.081492 0.314467,-0.107332 0.42771,-0.125521 0.870286,-0.139759 0.374615,-0.0121 0.578361,-7.7e-5 0.772685,0.04542 1.343769,0.314576 2.671279,2.048225 3.119989,4.074545 0.0477,0.215255 0.0944,0.416093 0.10383,0.446314 0.01,0.0315 0.13434,-0.11778 0.29201,-0.3502 1.32229,-1.949241 2.90327,-3.114571 4.752057,-3.50271 0.38483,-0.0808 1.16524,-0.09274 1.4872,-0.02274 0.57906,0.125855 1.08969,0.497002 1.3631,0.990733 0.22621,0.408534 0.3067,0.72768 0.32881,1.303648 0.0327,0.851136 -0.11101,1.401144 -0.65466,2.504758 -0.98432,1.998519 -2.90741,4.672669 -5.614867,7.807778 -0.96669,1.119388 -1.41423,1.829906 -1.61974,2.571547 -0.0422,0.152231 -0.0956,0.312152 -0.11877,0.355383 -0.19899,0.371845 -1.51969,1.020104 -1.74404,0.856061 z"
       style="fill:#f5edde;stroke-width:0.0103549"
       id="path2370-0" />
    <path
       d="m 96.468586,49.399738 c -0.04396,-0.08148 0.06546,-0.217434 0.628703,-0.779834 0.849945,-0.848932 0.776171,-0.76642 0.645522,-0.721858 -0.445606,0.152007 -1.087417,0.239496 -1.364228,0.185981 l -0.179227,-0.03469 -0.136813,-0.770421 c -0.326073,-1.836965 -0.706267,-3.090878 -1.972018,-6.504065 -0.790028,-2.13038 -1.061504,-2.905994 -1.323248,-3.780367 -0.745193,-2.489559 -1.056072,-4.596132 -0.921011,-6.24092 0.03743,-0.456613 0.06753,-0.602669 0.252857,-1.231314 0.182348,-0.619206 0.234334,-0.753496 0.392521,-1.01834 0.358836,-0.600862 0.807101,-1.018476 1.434737,-1.336658 0.416666,-0.211227 0.739029,-0.315008 1.25164,-0.402933 2.476873,-0.424897 3.92975,0.735976 4.566162,3.648513 0.333927,1.528181 0.461847,4.12219 0.308647,6.258668 -0.0253,0.35185 -0.0457,0.658152 -0.0457,0.680652 2.4e-4,0.02252 0.0696,-0.0854 0.15449,-0.239818 0.75689,-1.377836 1.52441,-2.522445 2.60178,-3.880007 1.34801,-1.698606 2.26565,-2.599355 3.18603,-3.127381 0.53124,-0.304754 0.91558,-0.449449 1.40416,-0.528594 1.40151,-0.227006 2.26474,0.295382 2.66336,1.611971 0.26091,0.861701 0.22779,1.869364 -0.10241,3.11557 -0.27943,1.05454 -0.67798,1.954424 -1.41953,3.205248 -1.39177,2.347582 -4.21328,5.643065 -8.527107,9.959494 -1.664675,1.665704 -1.641055,1.643725 -1.903548,1.770247 -0.449667,0.216691 -1.507985,0.323344 -1.59587,0.160804 z m 2.658122,-2.816306 c 2.793312,-2.8436 5.311612,-5.751977 6.716492,-7.756903 1.49274,-2.130316 2.23204,-4.013207 2.2776,-5.800657 0.0293,-1.150221 -0.38361,-2.25459 -0.95921,-2.565505 l -0.11435,-0.06173 -0.77662,0.843734 c -1.1747,1.276196 -1.75668,1.979488 -2.47282,2.988222 -1.43284,2.018186 -2.49677,4.086098 -3.35179,6.514668 -0.29792,0.846124 -0.3202,0.896213 -0.43911,0.985537 -0.259421,0.194932 -1.01667,0.388265 -1.461766,0.373224 -0.342065,-0.01147 -0.402731,-0.06079 -0.54515,-0.442085 -0.308426,-0.825858 -0.332811,-1.358195 -0.142547,-3.112884 0.278739,-2.571006 0.242521,-5.296968 -0.09747,-7.33917 -0.150192,-0.901692 -0.319559,-1.472363 -0.57944,-1.951408 -0.63861,-1.177184 -1.531765,-1.948402 -2.041779,-1.762997 -0.158315,0.05754 -0.391613,0.307688 -0.650316,0.697173 -0.18985,0.285823 -0.217563,0.352914 -0.40547,0.981787 -0.167886,0.561645 -0.207146,0.745308 -0.234127,1.094109 -0.123752,1.599115 0.244066,3.917965 1.009502,6.365501 0.255485,0.816911 0.634468,1.882703 1.456302,4.095441 0.648866,1.747056 0.809665,2.207765 1.111275,3.183772 0.30075,0.973261 0.562717,2.035711 0.697348,2.828183 0.06291,0.370561 0.129646,0.674716 0.148281,0.675928 0.01832,0.0032 0.403415,-0.37406 0.855137,-0.833913 z"
       style="fill:#be8d0d;stroke-width:0.0103549"
       id="path2508-9" />
    <path
       d="m 149.65542,85.360643 c -0.0513,-0.0212 -0.19223,-0.123561 -0.3131,-0.227398 -0.12088,-0.103828 -0.8626,-0.705196 -1.64827,-1.336361 -2.62169,-2.106107 -3.48728,-2.860639 -4.69692,-4.094277 -0.82733,-0.843741 -1.11594,-1.189889 -1.60869,-1.92938 -1.29656,-1.945801 -1.61191,-3.825166 -0.89771,-5.350027 0.59968,-1.280374 1.92908,-2.261726 3.52447,-2.601801 0.54458,-0.116076 1.46349,-0.126349 1.95464,-0.02188 1.22202,0.259974 2.29327,1.115534 2.83132,2.26124 0.0691,0.147214 0.13569,0.26803 0.14796,0.268453 0.0127,0 0.0456,-0.144521 0.0737,-0.322108 0.0736,-0.461145 0.2886,-1.320105 0.43361,-1.731804 0.17033,-0.483462 0.51236,-1.141093 0.78049,-1.500615 0.27468,-0.368298 0.82573,-0.902147 1.20916,-1.171417 0.37679,-0.264609 0.91815,-0.526646 1.3552,-0.655957 0.42902,-0.126939 1.13346,-0.172716 1.51536,-0.09848 1.01848,0.197973 1.86832,0.956793 2.4773,2.212005 0.51261,1.056582 0.71289,1.960207 0.75107,3.388748 0.0753,2.820697 -0.74696,5.399388 -2.61843,8.21069 -0.57282,0.860445 -1.60309,2.193329 -2.0496,2.651531 -0.41947,0.430456 -1.11844,0.78 -1.50376,0.752005 -0.0938,-0.0073 -0.17706,-0.03249 -0.18512,-0.05703 -0.008,-0.02454 0.0916,-0.174249 0.22156,-0.332653 2.62435,-3.200142 3.9725,-6.016969 4.26807,-8.917699 0.21597,-2.119628 -0.43298,-4.622462 -1.51421,-5.839878 -0.53861,-0.606437 -1.1748,-0.954958 -1.78692,-0.978958 l -0.26811,-0.01051 -0.13507,0.156547 c -0.17338,0.200838 -0.55398,0.978404 -0.73753,1.50676 -0.28942,0.833081 -0.50433,1.836906 -0.60328,2.817843 -0.0228,0.226023 -0.0521,0.498996 -0.0651,0.606626 -0.0127,0.107619 -0.0282,0.847905 -0.0338,1.645067 -0.006,1.028509 -0.0236,1.474677 -0.0567,1.536423 -0.0618,0.115598 -0.38403,0.367259 -0.68712,0.536767 -0.32434,0.181372 -0.65873,0.293259 -0.87646,0.293259 -0.16068,0 -0.19425,-0.01765 -0.36043,-0.190136 -0.51621,-0.535555 -0.71533,-0.965919 -1.30638,-2.823671 -0.24963,-0.78458 -0.513,-1.347474 -0.81473,-1.741317 -0.56337,-0.735304 -1.69193,-1.341612 -2.63271,-1.414358 -1.2441,-0.09623 -1.78752,0.588613 -1.78992,2.255804 -0.001,0.931262 0.20242,1.759501 0.65592,2.666086 0.92836,1.85584 2.213,3.127887 7.62233,7.547607 0.61843,0.505292 1.12442,0.943917 1.12442,0.974732 0,0.253055 -1.07175,1.00976 -1.52633,1.077638 -0.0753,0.01131 -0.17898,0.0032 -0.23029,-0.01817 z"
       style="fill:#be4e0e;stroke-width:0.0103549"
       id="path2551-3" />
    <path
       d="m 116.83239,97.075749 c -0.0204,-0.02035 -0.0515,-0.05918 -0.0693,-0.08622 -0.0242,-0.03688 -0.0486,-0.0492 -0.0977,-0.0492 -0.0748,0 -0.0974,-0.03392 -0.064,-0.0962 0.0193,-0.03603 0.0137,-0.05256 -0.0406,-0.121247 -0.22213,-0.280812 -0.69153,-0.827987 -1.24349,-1.449561 -1.05264,-1.185372 -1.47993,-1.715619 -1.90691,-2.366386 -0.26449,-0.403128 -0.36636,-0.582413 -0.57239,-1.007382 -0.39825,-0.821476 -0.58604,-1.564608 -0.58627,-2.319952 -2.1e-4,-0.663033 0.1383,-1.147008 0.4732,-1.653471 0.38451,-0.581461 1.159,-1.094326 1.81075,-1.199042 0.23603,-0.03798 0.6373,-0.01575 0.84686,0.04679 0.71592,0.213712 1.32405,0.777169 1.74308,1.615051 0.19894,0.39777 0.31067,0.703379 0.43613,1.192859 0.0418,0.162965 0.0786,0.298981 0.0819,0.302248 0.003,0.0031 0.0302,-0.06113 0.0597,-0.143026 0.17325,-0.4796 0.49185,-1.140177 0.71502,-1.48249 0.45292,-0.694716 1.15209,-1.250781 1.74112,-1.384746 0.17308,-0.03938 0.44223,-0.04031 0.58923,-0.0023 0.48553,0.126464 0.76014,0.55201 0.88371,1.369407 0.0417,0.275939 0.0576,1.025387 0.0279,1.315455 -0.1282,1.251591 -0.68156,2.508298 -1.71568,3.89635 -0.30202,0.405404 -0.66063,0.849781 -1.24473,1.542462 -0.28437,0.337237 -0.65254,0.780187 -0.81817,0.984316 l -0.30113,0.371165 0.0755,0.100021 c 0.0415,0.05497 0.0755,0.120319 0.0755,0.1451 0,0.10258 -0.36847,0.378814 -0.62704,0.470071 -0.15812,0.05583 -0.22371,0.05809 -0.27224,0.0096 z m 1.01758,-1.757119 c 0.59882,-0.711052 0.93211,-1.122609 1.21965,-1.506094 1.15191,-1.536208 1.70853,-2.949798 1.70864,-4.339229 0,-0.599857 -0.12673,-1.2135 -0.33173,-1.605718 -0.18028,-0.344917 -0.56802,-0.51713 -0.82511,-0.36647 -0.11372,0.06667 -0.20587,0.183933 -0.39967,0.508724 -0.51959,0.870765 -0.83767,1.776987 -1.24136,3.536663 -0.0763,0.332457 -0.0819,0.347717 -0.15495,0.422887 -0.14629,0.150473 -0.60583,0.390745 -0.74823,0.39122 -0.0811,0 -0.0658,0.06371 -0.13186,-0.545849 -0.12242,-1.12944 -0.28117,-1.85884 -0.54841,-2.519675 -0.46467,-1.149066 -1.23629,-1.905057 -2.07459,-2.032597 -0.24452,-0.0372 -0.46437,0.01825 -0.62178,0.156789 -0.11432,0.100638 -0.28549,0.359281 -0.36933,0.558061 -0.49133,1.16499 -0.0428,2.969355 1.16536,4.688467 0.37055,0.527244 0.7853,1.029527 1.70219,2.061433 0.31837,0.358306 0.6922,0.786027 0.83073,0.950497 0.13853,0.164462 0.25786,0.295753 0.26517,0.291737 0.007,-0.0039 0.25719,-0.296883 0.55528,-0.650846 z"
       style="fill:#0085ad;stroke-width:0.00506968"
       id="path2590-6" />
    <path
       d="m 183.98546,46.491922 c -0.0261,-0.0261 -0.0661,-0.0759 -0.0888,-0.11057 -0.031,-0.0473 -0.0623,-0.0631 -0.12528,-0.0631 -0.0959,0 -0.12487,-0.0435 -0.0821,-0.12337 0.0247,-0.0462 0.0176,-0.0674 -0.0521,-0.15549 -0.28487,-0.36012 -0.88683,-1.06183 -1.59469,-1.85895 -1.34992,-1.52015 -1.89789,-2.20015 -2.44545,-3.03471 -0.3392,-0.51698 -0.46984,-0.7469 -0.73405,-1.29189 -0.51073,-1.05348 -0.75156,-2.00649 -0.75186,-2.97516 -2.6e-4,-0.85029 0.17737,-1.47095 0.60686,-2.12045 0.49309,-0.74568 1.48632,-1.40339 2.32215,-1.53768 0.30268,-0.0487 0.81728,-0.0202 1.08603,0.06 0.91811,0.27407 1.69799,0.99666 2.23536,2.07118 0.25512,0.51011 0.39841,0.90203 0.5593,1.52975 0.0536,0.20899 0.10083,0.38342 0.10501,0.38761 0.004,0.004 0.0387,-0.0784 0.0766,-0.18342 0.22218,-0.61505 0.63076,-1.46219 0.91697,-1.90118 0.58083,-0.89092 1.47746,-1.60403 2.23284,-1.77583 0.22197,-0.0505 0.56714,-0.0517 0.75565,-0.003 0.62265,0.16218 0.97482,0.70791 1.13329,1.75616 0.0535,0.35387 0.0739,1.31498 0.0358,1.68697 -0.16441,1.60507 -0.87405,3.2167 -2.20023,4.99677 -0.38732,0.5199 -0.84721,1.08978 -1.59627,1.97809 -0.36468,0.43248 -0.83684,1.00053 -1.04924,1.26231 l -0.38617,0.47599 0.0969,0.12827 c 0.0533,0.0705 0.0968,0.1543 0.0968,0.18608 0,0.13155 -0.47254,0.4858 -0.80413,0.60283 -0.20278,0.0716 -0.28691,0.0745 -0.34914,0.0123 z m 1.30496,-2.25337 c 0.76795,-0.91187 1.19536,-1.43966 1.56412,-1.93145 1.47724,-1.97007 2.19106,-3.78289 2.19119,-5.56473 0,-0.76927 -0.16252,-1.55622 -0.42542,-2.05921 -0.23119,-0.44233 -0.72844,-0.66318 -1.05813,-0.46997 -0.14584,0.0855 -0.26401,0.23588 -0.51255,0.6524 -0.66634,1.11669 -1.07425,2.27885 -1.59195,4.5355 -0.0978,0.42635 -0.10498,0.44592 -0.19871,0.54232 -0.18761,0.19297 -0.77693,0.5011 -0.95955,0.50171 -0.10403,0 -0.0844,0.0817 -0.1691,-0.70001 -0.15699,-1.44842 -0.36057,-2.38382 -0.70329,-3.23129 -0.59591,-1.47359 -1.58545,-2.44309 -2.6605,-2.60665 -0.31359,-0.0477 -0.59552,0.0234 -0.79739,0.20107 -0.14661,0.12906 -0.36613,0.46075 -0.47364,0.71567 -0.63009,1.49401 -0.0549,3.80797 1.49449,6.0126 0.4752,0.67615 1.00708,1.32029 2.18292,2.64363 0.40829,0.4595 0.8877,1.00802 1.06535,1.21894 0.17766,0.21091 0.33068,0.37928 0.34007,0.37413 0.009,-0.005 0.32982,-0.38073 0.71209,-0.83466 z"
       style="fill:#be8d0d;stroke-width:0.00650148"
       id="path2590-6-5" />
    <path
       d="m -10.61913,83.264773 c -0.02613,-0.0261 -0.0661,-0.0759 -0.08883,-0.11057 -0.03102,-0.0473 -0.06227,-0.0631 -0.125279,-0.0631 -0.0959,0 -0.124874,-0.0435 -0.08214,-0.12337 0.02471,-0.0462 0.01762,-0.0674 -0.05207,-0.15549 -0.284865,-0.36012 -0.886829,-1.06183 -1.594687,-1.85895 -1.349924,-1.52015 -1.897892,-2.20015 -2.445455,-3.03471 -0.339196,-0.51698 -0.469836,-0.7469 -0.734046,-1.29189 -0.510727,-1.05348 -0.751562,-2.00649 -0.751858,-2.97516 -2.67e-4,-0.85029 0.177368,-1.47095 0.606852,-2.12045 0.493097,-0.74568 1.486323,-1.40339 2.32215,-1.53768 0.302685,-0.0487 0.817289,-0.0202 1.086032,0.06 0.918115,0.27407 1.697988,0.99666 2.235366,2.07118 0.255116,0.51011 0.398405,0.90203 0.5593,1.52975 0.05357,0.20899 0.100823,0.38342 0.105009,0.38761 0.0042,0.004 0.03866,-0.0784 0.07661,-0.18342 0.22218,-0.61505 0.630759,-1.46219 0.916964,-1.90118 0.58083,-0.89092 1.477462,-1.60403 2.232845,-1.77583 0.22197,-0.0505 0.567134,-0.0517 0.755646,-0.003 0.62265,0.16218 0.974819,0.70791 1.133294,1.75616 0.0535,0.35387 0.07388,1.31498 0.03578,1.68697 -0.16441,1.60507 -0.874056,3.2167 -2.20023,4.99677 -0.387323,0.5199 -0.847214,1.08978 -1.59627,1.97809 -0.364682,0.43248 -0.836837,1.00053 -1.049238,1.26231 l -0.386178,0.47599 0.09685,0.12827 c 0.05326,0.0705 0.09684,0.1543 0.09684,0.18608 0,0.13155 -0.47254,0.4858 -0.80413,0.60283 -0.20278,0.0716 -0.286901,0.0745 -0.349134,0.0123 z m 1.304964,-2.25337 c 0.76795,-0.91187 1.195361,-1.43966 1.564118,-1.93145 1.477235,-1.97007 2.191057,-3.78289 2.191193,-5.56473 0,-0.76927 -0.162523,-1.55622 -0.425419,-2.05921 -0.23119,-0.44233 -0.728443,-0.66318 -1.058133,-0.46997 -0.145844,0.0855 -0.264014,0.23588 -0.512554,0.6524 -0.666334,1.11669 -1.074244,2.27885 -1.591946,4.5355 -0.09781,0.42635 -0.104979,0.44592 -0.198709,0.54232 -0.187611,0.19297 -0.77693,0.5011 -0.959554,0.50171 -0.104027,0 -0.08437,0.0817 -0.169099,-0.70001 -0.156987,-1.44842 -0.360574,-2.38382 -0.70329,-3.23129 -0.595909,-1.47359 -1.585452,-2.44309 -2.660503,-2.60665 -0.313585,-0.0477 -0.595517,0.0234 -0.797385,0.20107 -0.146607,0.12906 -0.366127,0.46075 -0.47364,0.71567 -0.63009,1.49401 -0.05494,3.80797 1.494485,6.0126 0.475199,0.67615 1.007082,1.32029 2.182923,2.64363 0.408291,0.4595 0.8877,1.00802 1.065352,1.21894 0.177656,0.21091 0.33068,0.37928 0.340064,0.37413 0.0094,-0.005 0.329825,-0.38073 0.712097,-0.83466 z"
       style="fill:#0085ad;stroke-width:0.00650148"
       id="path2590-6-7" />
    <path
       d="m 125.94221,117.71385 c -0.0143,-0.0362 0.31089,-0.6439 0.82088,-1.53611 0.46409,-0.81198 0.85523,-1.50638 0.86917,-1.54315 0.018,-0.0473 -0.0714,-0.18466 -0.30505,-0.46964 -2.19146,-2.67154 -4.06276,-5.57567 -5.60579,-8.69979 -0.88654,-1.79497 -1.1874,-2.52584 -1.3324,-3.23667 -0.0782,-0.38347 -0.0878,-1.05589 -0.0196,-1.38146 0.24752,-1.181609 1.44596,-2.310912 2.78176,-2.621261 0.38466,-0.08941 1.03069,-0.09067 1.36517,-0.0032 0.54144,0.142387 1.0493,0.48602 1.43018,0.967672 0.46698,0.590564 0.70157,1.160419 1.44484,3.509679 l 0.32637,1.03154 0.41062,-0.79672 c 0.70958,-1.37676 1.25468,-2.31663 2.0169,-3.477583 0.52051,-0.792797 1.53065,-2.21749 1.91466,-2.700439 0.80371,-1.010751 1.96775,-1.911695 2.90905,-2.251564 0.3404,-0.122893 0.93295,-0.172966 1.19756,-0.101216 0.71936,0.195131 0.98672,1.011315 0.88331,2.696605 -0.0927,1.509453 -0.39236,2.726794 -1.10874,4.503087 -0.90901,2.25389 -2.03925,4.42217 -5.28277,10.13459 -0.5781,1.01811 -1.05109,1.86516 -1.05109,1.88227 0,0.0172 0.0352,0.0631 0.0782,0.10193 0.043,0.039 0.0782,0.10018 0.0782,0.13602 0,0.0976 -0.24095,0.36009 -0.48465,0.52794 -0.20745,0.14287 -0.2432,0.19661 -0.93201,1.40107 -0.66432,1.16167 -0.7319,1.26453 -0.93154,1.41806 -0.5233,0.40243 -1.3982,0.70393 -1.47347,0.50777 z m 3.01356,-5.37076 c 2.13741,-3.7408 3.81263,-6.84219 4.50805,-8.34591 1.1849,-2.56212 1.89998,-5.218339 1.80153,-6.692024 -0.051,-0.762827 -0.21445,-1.285157 -0.49265,-1.57378 -0.33265,-0.345133 -0.46708,-0.266318 -1.21255,0.710963 -2.17272,2.848322 -3.71955,5.549301 -4.96794,8.674691 -0.25455,0.63726 -0.29636,0.71548 -0.46397,0.86815 -0.47563,0.43319 -1.21608,0.84496 -1.47997,0.823 l -0.1486,-0.0123 -0.78866,-2.4962 c -0.80482,-2.54742 -0.91967,-2.88416 -1.12405,-3.29605 -0.43716,-0.88103 -1.2585,-1.603012 -1.88246,-1.654751 l -0.20751,-0.01723 -0.10639,0.181656 c -0.3454,0.589365 -0.27452,1.575805 0.19851,2.762255 0.98125,2.46126 2.80876,5.7112 4.71094,8.37769 0.45683,0.6404 1.45587,1.95452 1.48551,1.95401 0.0111,0 0.0874,-0.11897 0.17031,-0.26415 z"
       style="fill:#be8d0d;stroke-width:0.0103549"
       id="path2649-0" />
    <path
       d="m 124.62186,54.579464 c -3.35005,-3.015792 -4.75536,-5.714883 -4.90655,-9.423765 -0.065,-1.595151 0.22286,-3.252152 0.83637,-4.813824 0.55958,-1.424381 1.14837,-2.171194 2.12393,-2.693963 1.23817,-0.663506 2.2833,-0.438166 2.77825,0.599034 0.37395,0.783636 0.389,1.33556 0.13458,4.932335 -0.032,0.452028 -0.0823,1.050832 -0.11197,1.330659 -0.0296,0.279817 -0.0495,0.51322 -0.0444,0.518653 0.005,0.0053 0.16519,-0.167668 0.35558,-0.384651 1.35711,-1.546663 3.43359,-3.014467 4.82542,-3.410954 0.43225,-0.123132 1.03564,-0.121714 1.34818,0.0032 0.27303,0.109085 0.56146,0.379262 0.69564,0.651609 0.0903,0.183347 0.0962,0.233959 0.0938,0.802303 -0.003,0.584034 -0.01,0.635062 -0.18631,1.369789 -0.61655,2.560128 -1.40803,4.587523 -2.61265,6.692386 -0.66621,1.164067 -1.62043,2.550799 -2.00125,2.908322 -0.32797,0.307917 -0.9247,0.605512 -1.28301,0.639838 -0.22505,0.02152 -0.29346,0.05035 -0.59313,0.249449 -0.37326,0.248029 -0.70673,0.390022 -0.91589,0.390022 -0.11675,0 -0.19361,-0.0516 -0.53668,-0.360417 z m 2.54617,-1.510466 c 1.68752,-2.491508 2.91595,-5.311731 3.52709,-8.097398 0.24341,-1.109498 0.27251,-1.576798 0.12295,-1.974559 -0.2175,-0.578603 -0.84779,-0.799419 -1.46175,-0.512104 -0.33157,0.155161 -0.55305,0.308125 -0.94581,0.653229 -1.00558,0.883562 -1.75843,1.788098 -3.08479,3.706227 -0.33666,0.486876 -0.59078,0.682457 -1.36035,1.046937 -0.39839,0.188676 -0.61257,0.236998 -0.64747,0.146066 -0.0127,-0.03416 0.0301,-0.445552 0.096,-0.91421 0.21337,-1.517465 0.46185,-4.250024 0.50275,-5.528945 0.0311,-0.973073 -0.0639,-1.711205 -0.28562,-2.219809 -0.0908,-0.208271 -0.34988,-0.514809 -0.60763,-0.718944 l -0.14334,-0.113575 -0.15752,0.265138 c -0.28669,0.482552 -0.60761,1.354049 -0.82585,2.242676 -0.44597,1.815875 -0.43842,3.814189 0.0213,5.643497 0.61801,2.459001 1.75565,4.225621 4.16223,6.46345 0.42858,0.398524 0.6198,0.552623 0.65231,0.525641 0.0253,-0.02099 0.22127,-0.296978 0.43554,-0.613314 z"
       style="fill:#f5edde;stroke-width:0.0103549"
       id="path2688-6" />
    <path
       d="m 166.86763,69.685715 c -1.11505,-1.103725 -1.8496,-1.58754 -4.39125,-2.892281 -1.58197,-0.812102 -2.28698,-1.20526 -2.93393,-1.636117 -1.19618,-0.796638 -2.16872,-1.751095 -2.81044,-2.758224 -0.41652,-0.653756 -0.83091,-1.691018 -1.00747,-2.52193 -0.12153,-0.571796 -0.1502,-1.631483 -0.0591,-2.176872 0.20434,-1.221999 0.83739,-2.16104 1.95381,-2.898126 0.84846,-0.560185 1.66977,-0.81508 2.62628,-0.81508 1.18813,0 2.16058,0.406552 3.08722,1.290677 0.53049,0.506144 0.94308,1.080488 1.45112,2.020054 l 0.28497,0.526961 0.0656,-0.265312 c 0.4291,-1.73442 1.49867,-4.403452 2.19221,-5.470514 0.84711,-1.30338 2.1822,-2.320201 3.39801,-2.587942 0.37043,-0.08158 1.02715,-0.08096 1.37483,10e-4 0.37757,0.08932 0.78024,0.312899 1.09065,0.605626 0.94769,0.893746 1.39167,2.509141 1.50184,5.464238 0.0858,2.300195 -0.50426,4.387684 -1.90266,6.731535 -0.17978,0.301354 -0.60315,0.988191 -0.94082,1.526333 -1.15441,1.83984 -1.61922,2.692365 -2.03778,3.737543 -0.25287,0.631474 -0.37067,0.801877 -0.69663,1.007829 -0.12073,0.07629 -0.22672,0.144776 -0.23571,0.152421 -0.01,0.008 0.0395,0.0833 0.10767,0.168094 0.0682,0.08489 0.12391,0.187238 0.12391,0.227597 0,0.25085 -1.07026,0.970449 -1.55753,1.047201 l -0.16819,0.0266 -0.51671,-0.511464 z m 2.0541,-3.233596 c 0.28486,-0.498611 0.79782,-1.341899 1.36887,-2.250343 1.34699,-2.142884 1.79835,-3.085683 2.18286,-4.559441 0.26359,-1.010346 0.35431,-1.840238 0.33585,-3.072224 -0.0258,-1.726806 -0.30737,-3.390637 -0.73619,-4.351036 -0.40624,-0.909797 -1.27474,-1.605404 -2.00647,-1.607013 -0.55406,-0.001 -0.88124,0.369088 -1.46446,1.657406 -1.105,2.440926 -1.84191,4.853007 -2.31171,7.566651 l -0.11483,0.663424 -0.16676,0.170976 c -0.31003,0.317903 -1.06018,0.751659 -1.40567,0.812819 -0.11101,0.01959 -0.1596,0.008 -0.21675,-0.04842 -0.0404,-0.04046 -0.29126,-0.566094 -0.55725,-1.167991 -0.6245,-1.413108 -1.01922,-2.194105 -1.40359,-2.777225 -0.4985,-0.756278 -0.97854,-1.267025 -1.55385,-1.65335 -0.85923,-0.576956 -2.22604,-0.934964 -2.64202,-0.692013 -0.29772,0.173875 -0.50519,0.613986 -0.69044,1.464791 -0.10957,0.503564 -0.0994,1.633108 0.0201,2.191652 0.38325,1.793142 1.34311,3.331882 2.82317,4.525739 0.86741,0.699673 1.67172,1.185352 3.71801,2.245151 2.05775,1.065692 2.89717,1.57405 3.83426,2.321934 l 0.17498,0.13968 0.31653,-0.634102 c 0.17412,-0.348737 0.39703,-0.774944 0.49539,-0.947163 z"
       style="fill:#be8d0d;stroke-width:0.0103549"
       id="path2013-1-6" />
    <path
       d="m 2.2777609,58.757563 c 0.00757,-0.09859 0.089233,-0.236912 0.1316867,-0.326213 l 0.13177,-0.27722 -0.134059,0.003 -0.1340566,0.003 -2.4e-6,0 -0.057589,-0.197928 -7e-7,-2e-6 C 2.078614,57.491613 1.8083425,57.06603 1.4676813,56.713692 c -6e-7,-1e-6 -1.1e-6,-1e-6 -1.7e-6,-2e-6 -0.63877129,-0.660666 -1.48843441,-1.069212 -2.32301401,-1.4539 l -1.01e-6,-1e-6 C -1.7589349,54.843282 -2.6659278,54.392226 -3.3823294,53.701763 c -0.9244676,-0.89101 -1.4846757,-2.14942 -1.532702,-3.432476 -0.020443,-0.546308 0.055726,-1.104598 0.298999,-1.594178 l 8e-7,-10e-7 c 0.2139569,-0.43057 0.5547465,-0.790996 0.9594262,-1.050616 1.2055398,-0.77341 2.85124312,-0.543521 3.99304299,0.321223 0.38140382,0.288858 0.72042161,0.636586 1.01704931,1.011979 l 7e-7,1e-6 c 0.2492055,0.315394 0.472356,0.651143 0.672163,0.999932 l 1.2e-6,2e-6 0.1716318,0.29961 0.06872,-0.176749 c 0.4484654,-1.153369 1.1289279,-2.24075 2.097181,-3.011377 0.7564281,-0.602036 1.6306916,-1.074856 2.576978,-1.272778 0.4276744,-0.08944 0.8763936,-0.115453 1.30363,-0.02394 0.8978701,0.192409 1.6098591,0.942191 1.8028814,1.83993 0.103948,0.48344 0.09589,0.992143 0.01187,1.479441 -0.2212895,1.282661 -0.9197507,2.438644 -1.7697794,3.424362 -0.5000686,0.579899 -1.058077,1.106794 -1.612582,1.634881 -0.7900356,0.752402 -1.5940623,1.499628 -2.253893,2.368471 -5e-7,10e-7 -1e-6,10e-7 -1.4e-6,2e-6 -0.351675,0.46306 -0.6797816,0.950203 -0.9056886,1.485988 -0.1182987,0.280555 -0.3515024,0.496853 -0.6260338,0.628529 -8e-7,0 -1.5e-6,10e-7 -2.2e-6,10e-7 -0.1433567,0.06876 -0.2896792,0.135732 -0.4454029,0.167817 -0.063378,0.01306 -0.1674701,0.02317 -0.1674701,-0.04154 l -1.3e-5,-7.2e-4 m 1.355968,-2.18605 c 0.5814574,-0.699638 1.2435784,-1.327386 1.901975,-1.955159 0.8706233,-0.830124 1.7523573,-1.666887 2.414272,-2.671357 0.298728,-0.45333 0.551932,-0.937611 0.730863,-1.450183 0.3638444,-1.042262 0.4323778,-2.274074 -0.187322,-3.187674 -4e-7,-10e-7 -8e-7,-10e-7 -1.2e-6,-2e-6 C 8.3133194,47.0436 8.0617918,46.823944 7.7727696,46.684603 7.5038034,46.554928 7.2079826,46.493687 6.9095986,46.482485 c -0.3260274,-0.01223 -0.6538728,0.02831 -0.963478,0.131212 -0.7472318,0.248404 -1.3602807,0.802979 -1.7994304,1.45659 l -6e-7,10e-7 c -0.6424347,0.956153 -0.9842534,2.079593 -1.2662,3.196489 -0.055161,0.21851 -0.062662,0.471661 -0.2176153,0.635302 -2e-7,0 -5e-7,10e-7 -7e-7,10e-7 -0.1358431,0.143462 -0.3098001,0.245211 -0.4826081,0.340982 -6e-7,0 -1.3e-6,0 -1.9e-6,10e-7 -0.1494575,0.08283 -0.3027917,0.185626 -0.473634,0.188969 l -0.09943,0.002 -0.08922,-0.294877 C 1.308006,51.445113 1.0188274,50.771327 0.61613959,50.168314 -0.12501423,49.058444 -1.183151,48.038957 -2.4987664,47.81473 c -0.376549,-0.06418 -0.8410386,-0.03182 -1.0045151,0.313409 -3e-7,1e-6 -6e-7,1e-6 -9e-7,2e-6 -0.3594016,0.75908 -0.3154679,1.655988 -0.11374,2.471266 0.3544363,1.432484 1.4058573,2.620146 2.68488099,3.356172 0.35321093,0.203251 0.72249323,0.376818 1.09327307,0.545908 6.4e-7,0 1.29e-6,1e-6 1.93e-6,1e-6 0.86975021,0.396638 1.75246271,0.821416 2.42685101,1.498902 5e-7,10e-7 1e-6,10e-7 1.5e-6,2e-6 0.2538973,0.255076 0.4825812,0.544776 0.6241845,0.875648 l 8e-7,2e-6 0.060668,0.141816 8e-7,2e-6 0.06145,-0.079 c 0.09655,-0.124332 0.1987355,-0.24422 0.299357,-0.36528 z"
       style="fill:#be4e0e;stroke-width:0.00650148"
       id="path2098-2-1"
       inkscape:path-effect="#path-effect3773"
       inkscape:original-d="m 2.2776776,58.75956 c 0,-0.0281 0.05929,-0.17575 0.13177,-0.32821 l 0.13177,-0.27722 -0.134059,0.003 -0.134059,0.003 -0.05759,-0.19793 c -0.133298,-0.45822 -0.376827,-0.86479 -0.74783,-1.24851 -0.49719801,-0.51424 -1.09182501,-0.8864 -2.32301401,-1.4539 -1.36223799,-0.627913 -1.91653599,-0.969671 -2.52699499,-1.558027 -0.929077,-0.895453 -1.484279,-2.138822 -1.532702,-3.432476 -0.02387,-0.637901 0.06846,-1.130225 0.298999,-1.594178 0.224105,-0.450992 0.506097,-0.759786 0.959427,-1.050617 1.254853,-0.805047 2.654619,-0.692435 3.99304299,0.321223 0.239482,0.181373 0.80666101,0.745725 1.01705001,1.01198 0.232471,0.294215 0.472052,0.650612 0.672163,0.999932 l 0.171633,0.299612 0.06872,-0.176749 c 0.498379,-1.281737 1.212668,-2.307398 2.097181,-3.011377 0.826599,-0.657885 1.700316,-1.089418 2.576978,-1.272778 0.399159,-0.08348 0.976222,-0.09407 1.30363,-0.02394 1.01375,0.217242 1.577742,0.792816 1.8028814,1.83993 0.07126,0.331415 0.0774,1.099394 0.01187,1.479441 -0.2038824,1.181764 -0.7543174,2.246803 -1.7697794,3.424362 -0.342191,0.396818 -0.800772,0.861748 -1.612582,1.634881 -1.254794,1.195021 -1.789232,1.756621 -2.253893,2.368471 -0.405475,0.5339 -0.725963,1.05973 -0.90569,1.48599 -0.133337,0.31622 -0.278251,0.46172 -0.626036,0.62853 -0.370577,0.17775 -0.612873,0.22767 -0.612873,0.12628 z m 1.355968,-2.18605 c 0.417071,-0.50184 0.920506,-1.01934 1.901975,-1.955159 1.355096,-1.29206 1.909866,-1.90591 2.414272,-2.671357 0.34791,-0.527965 0.54646,-0.921936 0.730863,-1.450183 0.431762,-1.236817 0.364962,-2.373463 -0.187322,-3.187674 -0.160995,-0.237351 -0.466215,-0.501861 -0.720664,-0.624534 -0.316107,-0.152403 -0.46451,-0.187151 -0.863171,-0.202118 -0.382677,-0.01436 -0.624737,0.01863 -0.963478,0.131212 -0.739081,0.245694 -1.280091,0.683628 -1.799431,1.456591 -0.52563,0.782309 -0.887162,1.694978 -1.2662,3.196489 -0.12447,0.493066 -0.148015,0.5618 -0.217616,0.635303 -0.195316,0.20627 -0.772891,0.526364 -0.956244,0.529952 l -0.09943,0.002 -0.08922,-0.294877 C 1.2878636,51.378535 0.99082859,50.7294 0.61613959,50.168314 c -0.848807,-1.27108 -2.03872299,-2.170165 -3.11490599,-2.353584 -0.568359,-0.09688 -0.852178,-0.0083 -1.004516,0.313411 -0.301502,0.636792 -0.343248,1.543716 -0.11374,2.471266 0.353689,1.429464 1.221214,2.513891 2.68488099,3.356172 0.316501,0.182127 0.536859,0.292162 1.093275,0.545909 1.22665701,0.5594 1.91459401,0.984292 2.42685101,1.498902 0.23897,0.24008 0.522265,0.6375 0.624186,0.87565 l 0.06067,0.14182 0.06145,-0.079 c 0.03378,-0.0435 0.168498,-0.20784 0.299357,-0.36528 z" />
    <path
       d="m -1.8215564,75.78352 c -0.05208,-0.0521 -0.05148,-0.0827 0.0033,-0.16595 0.05031,-0.0763 0.128235,-0.13752 0.601809,-0.47273 0.186521,-0.13202 0.33475299,-0.24441 0.32942099,-0.24974 -0.0052,-0.005 -0.05575,0.007 -0.111949,0.0264 -0.05621,0.0199 -0.14365399,0.0393 -0.19426799,0.0433 -0.07935,0.006 -0.09312,-3.4e-4 -0.09989,-0.0481 -0.0068,-0.0479 -0.0225,-0.0553 -0.117806,-0.0553 h -0.109963 l -0.410499,-0.42236 c -0.393145,-0.40452 -1.46913,-1.47029 -1.980138,-1.96136 -0.671597,-0.64541 -1.623765,-1.68962 -2.117254,-2.32192 -0.250775,-0.32132 -0.765695,-1.08986 -0.938419,-1.40064 -0.487915,-0.87788 -0.796569,-1.71506 -0.95579,-2.59241 -0.05812,-0.32027 -0.05865,-0.97487 -9.84e-4,-1.22578 0.09552,-0.41568 0.240095,-0.66896 0.569663,-0.99803 0.272825,-0.27241 0.532933,-0.44788 0.89585,-0.60434 0.374794,-0.16158 0.57954,-0.20555 0.946723,-0.20329 0.37384,0.003 0.594328,0.0518 0.908889,0.20406 0.913408,0.44212 1.980284,1.83299 2.768869,3.60977 0.342729,0.77221 0.725393,1.8441 0.92688799,2.59634 0.05431,0.20272 0.112081,0.41835 0.128392,0.47917 l 0.02965,0.11057 0.03437,-0.12286 c 0.465834,-1.66522 1.226559,-3.41748 1.98130801,-4.5638 0.743561,-1.12932 1.70946,-1.94413 2.632904,-2.22107 0.306879,-0.092 0.707875,-0.098 0.950729,-0.0141 0.481136,0.16623 0.854375,0.6009 1.006215,1.17182 0.06677,0.25104 0.09013,0.92087 0.04617,1.32377 -0.37913,3.47456 -2.574952,6.66428 -6.54426601,9.50642 -0.68304399,0.48908 -1.07370999,0.67851 -1.18002499,0.57218 z M 0.31553359,73.95215 C 1.0293506,73.3435 1.8563826,72.48247 2.4057156,71.77606 c 1.041428,-1.33923 1.824603,-2.95186 2.153323,-4.43392 0.301494,-1.35936 0.278513,-2.24557 -0.07281,-2.80721 -0.173653,-0.27761 -0.470878,-0.54019 -0.716526,-0.633 -0.373246,-0.14103 -0.59079,-0.006 -1.067525,0.66205 -0.482421,0.67611 -0.809337,1.21469 -1.148288,1.89175 -0.81471501,1.62738 -1.34855701,3.46872 -1.57168201,5.42112 -0.07121,0.62317 -0.09784,1.0322 -0.116534,1.79005 -0.01469,0.59615 -0.01253,0.65866 0.02223,0.63889 0.02118,-0.0121 0.213622,-0.17118 0.427598,-0.35364 z M -1.5049244,72.90168 c -0.292188,-2.07169 -0.885844,-4.06417 -1.687396,-5.6634 -0.61561,-1.22825 -1.452454,-2.40815 -2.061247,-2.90622 -0.407724,-0.33358 -1.043962,-0.58944 -1.259407,-0.50647 -0.09467,0.0365 -0.155403,0.14931 -0.21903,0.40708 -0.07347,0.29762 -0.08043,0.98422 -0.01357,1.34024 0.306655,1.63313 1.075193,3.05845 2.557188,4.7425 0.264534,0.30061 2.651423,2.70299 2.685561,2.70299 0.0079,0 0.007,-0.0525 -0.002,-0.11672 z"
       style="fill:#0085ad;stroke-width:0.00650148"
       id="path2155-7-8" />
    <path
       d="m 107.33626,90.158204 c -0.0377,-0.03767 -0.0372,-0.05979 0.002,-0.119977 0.0364,-0.05516 0.0927,-0.09942 0.43509,-0.341772 0.13485,-0.09545 0.24202,-0.176703 0.23816,-0.180556 -0.004,-0.0036 -0.0403,0.0051 -0.0809,0.01909 -0.0406,0.01439 -0.10386,0.02841 -0.14045,0.03131 -0.0574,0.0043 -0.0673,-2.46e-4 -0.0722,-0.03477 -0.005,-0.03463 -0.0163,-0.03998 -0.0852,-0.03998 h -0.0795 l -0.29678,-0.305356 c -0.28424,-0.292458 -1.06214,-1.062984 -1.43159,-1.418015 -0.48555,-0.466615 -1.17394,-1.221553 -1.53072,-1.678691 -0.18131,-0.232306 -0.55358,-0.787941 -0.67846,-1.012628 -0.35275,-0.634685 -0.5759,-1.239945 -0.69101,-1.874248 -0.042,-0.231547 -0.0424,-0.704807 -7.1e-4,-0.886208 0.0691,-0.300527 0.17358,-0.483642 0.41185,-0.721551 0.19725,-0.196946 0.3853,-0.323806 0.64768,-0.436923 0.27096,-0.116818 0.41899,-0.148608 0.68445,-0.146974 0.27028,0.0022 0.42969,0.03745 0.65711,0.147531 0.66037,0.319641 1.4317,1.325206 2.00183,2.609774 0.24778,0.558289 0.52444,1.333238 0.67011,1.877089 0.0393,0.146562 0.081,0.302457 0.0928,0.346428 l 0.0215,0.07994 0.0249,-0.08882 c 0.33678,-1.203913 0.88677,-2.470753 1.43243,-3.299514 0.53758,-0.816471 1.2359,-1.405558 1.90353,-1.605779 0.22187,-0.06651 0.51177,-0.07085 0.68735,-0.01019 0.34785,0.12018 0.61769,0.434436 0.72747,0.847197 0.0483,0.181496 0.0651,0.665766 0.0334,0.957053 -0.2741,2.512021 -1.86162,4.818109 -4.73134,6.872906 -0.49382,0.353593 -0.77626,0.490546 -0.85313,0.413672 z m 1.54506,-1.324035 c 0.51608,-0.440039 1.114,-1.062542 1.51115,-1.573259 0.75293,-0.96823 1.31915,-2.134121 1.5568,-3.205614 0.21797,-0.982784 0.20136,-1.623491 -0.0526,-2.029543 -0.12555,-0.200705 -0.34043,-0.390544 -0.51803,-0.457644 -0.26985,-0.101961 -0.42713,-0.0043 -0.77179,0.478646 -0.34878,0.488811 -0.58514,0.878191 -0.83019,1.367688 -0.58902,1.176556 -0.97497,2.507799 -1.13628,3.919336 -0.0515,0.450536 -0.0707,0.746255 -0.0843,1.294162 -0.0106,0.431001 -0.009,0.476194 0.016,0.461901 0.0153,-0.0087 0.15444,-0.123759 0.30914,-0.255673 z m -1.31615,-0.759463 c -0.21124,-1.497781 -0.64044,-2.938295 -1.21994,-4.094498 -0.44507,-0.887995 -1.05009,-1.741033 -1.49023,-2.101125 -0.29478,-0.24117 -0.75476,-0.426151 -0.91052,-0.366166 -0.0684,0.02639 -0.11235,0.107948 -0.15835,0.294309 -0.0531,0.215172 -0.0581,0.711567 -0.01,0.968961 0.2217,1.180712 0.77733,2.211183 1.84878,3.428709 0.19125,0.217334 1.91692,1.954195 1.94159,1.954195 0.006,0 0.005,-0.03796 -10e-4,-0.08439 z"
       style="fill:#0085ad;stroke-width:0.00470041"
       id="path2155-7-8-9" />
    <path
       d="m 118.36579,25.341986 c -0.0623,-0.04554 -0.0617,-0.06052 0.0105,-0.324768 0.10232,-0.372934 0.29059,-0.776535 0.54305,-1.164031 0.28963,-0.44459 0.40856,-0.596967 1.54345,-1.97757 2.77977,-3.381604 3.75263,-4.727135 4.60259,-6.365554 0.51206,-0.987085 0.70608,-1.576681 0.74,-2.248765 0.0356,-0.706736 -0.13259,-1.216106 -0.54897,-1.661131 -0.26676,-0.285187 -0.46929,-0.431062 -0.76567,-0.551483 -0.44964,-0.182699 -0.94446,-0.182624 -1.34385,2.7e-4 -0.2436,0.111462 -0.64349,0.482164 -0.91741,0.850303 -0.21919,0.294611 -0.89369,1.360453 -1.22306,1.932701 -0.24785,0.430627 -0.81367,1.555496 -1.00678,2.00157 -0.14577,0.336634 -0.2964,0.488006 -0.75248,0.7561 -0.38111,0.224033 -0.73532,0.370836 -0.92032,0.381428 l -0.14727,0.009 0.0135,-0.69944 c 0.0151,-0.82473 -0.0479,-1.40309 -0.23331,-2.140538 -0.50734,-2.017825 -1.87466,-3.739601 -3.02615,-3.810629 -0.20713,-0.01348 -0.26525,0.04659 -0.48828,0.498764 -0.6082,1.233095 -0.59994,3.085285 0.022,4.951857 0.32778,0.983639 0.88483,2.112853 2.00852,4.071426 0.82747,1.442297 1.2216,2.185842 1.5362,2.898137 0.30131,0.682241 0.33229,0.803965 0.24553,0.965031 -0.17898,0.332364 -1.34336,0.924747 -1.61373,0.821 -0.0318,-0.01199 -0.10906,-0.155418 -0.17191,-0.318266 -0.32754,-0.849315 -0.80606,-1.784489 -1.79808,-3.51398 -1.80198,-3.141586 -2.41639,-4.869355 -2.41714,-6.797261 -4e-4,-0.779681 0.0547,-1.159731 0.25365,-1.754541 0.23395,-0.699215 0.55442,-1.2172 1.06829,-1.72675 0.47085,-0.466912 1.00943,-0.799426 1.64773,-1.017287 0.2958,-0.100975 0.40232,-0.118054 0.81862,-0.131537 0.35238,-0.01198 0.54402,-6e-5 0.72681,0.0427 1.26401,0.295914 2.5127,1.926633 2.93478,3.832651 0.0448,0.20249 0.0888,0.391391 0.0977,0.419826 0.009,0.02966 0.12645,-0.110713 0.27467,-0.329413 1.2438,-1.833523 2.7309,-2.929672 4.46995,-3.294771 0.36198,-0.07596 1.09606,-0.08719 1.39891,-0.02142 0.54468,0.118353 1.02501,0.467512 1.28218,0.931922 0.21276,0.384275 0.2885,0.684474 0.30927,1.226264 0.0307,0.800595 -0.10442,1.317951 -0.61578,2.356047 -0.92588,1.879876 -2.73481,4.395266 -5.28152,7.344264 -0.90932,1.052943 -1.33028,1.721267 -1.52359,2.41888 -0.0397,0.143222 -0.0899,0.293622 -0.11176,0.334281 -0.1872,0.349773 -1.42947,0.959549 -1.64052,0.80524 z"
       style="fill:#0085ad;stroke-width:0.00974018"
       id="path2370-0-7" />
    <path
       d="m 181.83677,63.977427 c -0.0277,-0.0512 0.0411,-0.13652 0.39474,-0.48963 0.53365,-0.53302 0.48732,-0.48121 0.40529,-0.45323 -0.27977,0.0954 -0.68274,0.15037 -0.85654,0.11677 l -0.11253,-0.0218 -0.0859,-0.48372 c -0.20474,-1.15336 -0.44344,-1.94065 -1.23816,-4.08367 -0.49603,-1.33759 -0.66649,-1.82457 -0.83083,-2.37355 -0.46788,-1.56311 -0.66307,-2.88575 -0.57826,-3.91845 0.0236,-0.2867 0.0424,-0.3784 0.15876,-0.7731 0.11449,-0.38878 0.14713,-0.4731 0.24645,-0.63938 0.2253,-0.37726 0.50675,-0.63947 0.90082,-0.83925 0.26161,-0.13261 0.46401,-0.19777 0.78586,-0.25298 1.55513,-0.26678 2.46735,0.46209 2.86693,2.29077 0.20966,0.95949 0.28998,2.58818 0.19379,3.92959 -0.0159,0.22092 -0.0287,0.41324 -0.0287,0.42737 1.5e-4,0.0142 0.0437,-0.0536 0.097,-0.15058 0.47522,-0.8651 0.95712,-1.58375 1.63356,-2.43612 0.84637,-1.06649 1.42254,-1.63204 2.0004,-1.96357 0.33355,-0.19134 0.57486,-0.28219 0.88162,-0.33189 0.87996,-0.14252 1.42195,0.18547 1.67223,1.01211 0.16383,0.54103 0.14302,1.1737 -0.0643,1.95615 -0.17543,0.66211 -0.42567,1.22711 -0.89126,2.01246 -0.87384,1.47396 -2.64537,3.54308 -5.35387,6.25321 -1.04519,1.04584 -1.03036,1.03204 -1.19517,1.11148 -0.28233,0.13605 -0.94681,0.20301 -1.00198,0.10096 z m 1.66894,-1.76826 c 1.75382,-1.7854 3.33497,-3.61146 4.21704,-4.87028 0.93724,-1.33755 1.40143,-2.51975 1.43003,-3.64203 0.0184,-0.72218 -0.24084,-1.41558 -0.60225,-1.61079 l -0.0718,-0.0388 -0.48761,0.52975 c -0.73755,0.80128 -1.10296,1.24285 -1.5526,1.8762 -0.89963,1.26715 -1.56763,2.56552 -2.10447,4.09033 -0.18705,0.53125 -0.20104,0.56269 -0.2757,0.61878 -0.16288,0.12239 -0.63833,0.24378 -0.91779,0.23433 -0.21477,-0.007 -0.25286,-0.0382 -0.34229,-0.27757 -0.19364,-0.51852 -0.20895,-0.85276 -0.0895,-1.95446 0.17502,-1.61425 0.15228,-3.32578 -0.0611,-4.60801 -0.0942,-0.56614 -0.20064,-0.92444 -0.3638,-1.22521 -0.40096,-0.73912 -0.96174,-1.22334 -1.28196,-1.10693 -0.0994,0.0361 -0.24589,0.19319 -0.40832,0.43773 -0.1192,0.17946 -0.13659,0.22158 -0.25458,0.61643 -0.1054,0.35264 -0.13006,0.46795 -0.14699,0.68695 -0.0777,1.00403 0.15323,2.45995 0.63383,3.99667 0.1604,0.51291 0.39836,1.18208 0.91435,2.57138 0.40741,1.09692 0.50837,1.38618 0.69774,1.99898 0.18883,0.61108 0.35331,1.27815 0.43783,1.77571 0.0395,0.23267 0.0814,0.42363 0.0931,0.42439 0.0115,0.002 0.2533,-0.23485 0.53691,-0.52358 z"
       style="fill:#be8d0d;stroke-width:0.00650148"
       id="path2508-9-9" />
    <path
       d="m -6.0029894,88.88884 c -0.03224,-0.0133 -0.120685,-0.0776 -0.196579,-0.14277 -0.07589,-0.0652 -0.541591,-0.44277 -1.034888,-0.83906 -1.646067,-1.32234 -2.189535,-1.79609 -2.9490266,-2.57064 -0.519453,-0.52976 -0.70066,-0.74709 -1.010043,-1.21139 -0.814061,-1.2217 -1.012058,-2.40169 -0.563637,-3.35909 0.376524,-0.8039 1.211196,-1.42006 2.2128946,-1.63358 0.34192,-0.0729 0.918865,-0.0793 1.22724,-0.0137 0.767266,0.16323 1.439868,0.70041 1.777683,1.41975 0.04341,0.0924 0.08523,0.16829 0.09293,0.16855 0.0077,0 0.02856,-0.0907 0.04632,-0.20223 0.04616,-0.28954 0.181204,-0.82885 0.272254,-1.08734 0.106933,-0.30355 0.321687,-0.71645 0.490035,-0.94218 0.172461,-0.23125 0.518452,-0.56643 0.759188,-0.7355 0.23657,-0.16613 0.576478,-0.33066 0.850883,-0.41185 0.269374,-0.0797 0.711654,-0.10844 0.951445,-0.0619 0.639468,0.1243 1.173041,0.60074 1.555403,1.38884 0.321853,0.66339 0.447602,1.23075 0.471574,2.12768 0.04735,1.77102 -0.46899,3.39008 -1.644017,5.1552 -0.35965,0.54024 -1.00653,1.37711 -1.28687,1.6648 -0.263369,0.27027 -0.702234,0.48973 -0.944164,0.47216 -0.05886,-0.005 -0.11117,-0.0204 -0.11623,-0.0358 -0.005,-0.0154 0.05753,-0.10941 0.13911,-0.20886 1.647737,-2.00926 2.494189,-3.77784 2.679766,-5.59911 0.135607,-1.33084 -0.271849,-2.90228 -0.950722,-3.66665 -0.33817,-0.38076 -0.737601,-0.59959 -1.121929,-0.61465 l -0.168342,-0.007 -0.08485,0.0983 c -0.108861,0.12611 -0.347828,0.61431 -0.463075,0.94605 -0.181713,0.52306 -0.316646,1.15332 -0.378778,1.76922 -0.01431,0.14191 -0.03274,0.3133 -0.04092,0.38088 -0.0082,0.0676 -0.01772,0.53237 -0.0212,1.03288 -0.0045,0.64576 -0.01478,0.92589 -0.03555,0.96466 -0.03884,0.0726 -0.241121,0.23059 -0.431422,0.33702 -0.203637,0.11388 -0.413584,0.18413 -0.550293,0.18413 -0.100884,0 -0.121958,-0.0111 -0.226305,-0.11938 -0.324107,-0.33626 -0.449127,-0.60647 -0.820225,-1.77289 -0.15673,-0.4926 -0.322088,-0.84603 -0.511545,-1.09331 -0.353712,-0.46167 -1.062298,-0.84235 -1.652981,-0.88802 -0.7811286,-0.0604 -1.1223126,0.36957 -1.1238246,1.41634 -6.56e-4,0.58471 0.127092,1.10473 0.411829,1.67394 0.5828816,1.16521 1.3894556,1.96389 4.7857856,4.73887 0.388291,0.31726 0.705984,0.59265 0.705984,0.612 0,0.15888 -0.672916,0.63399 -0.958328,0.67661 -0.0473,0.007 -0.112371,0.002 -0.144592,-0.0114 z"
       style="fill:#be4e0e;stroke-width:0.00650148"
       id="path2551-3-2" />
    <path
       d="m 160.2096,129.6877 c -0.0522,-0.0568 -0.13218,-0.16518 -0.17758,-0.2406 -0.062,-0.10316 -0.12455,-0.13732 -0.25051,-0.13732 -0.19177,0 -0.2497,-0.0947 -0.16418,-0.26847 0.0494,-0.10057 0.0352,-0.14668 -0.1042,-0.33838 -0.56965,-0.78366 -1.77338,-2.31073 -3.18886,-4.04539 -2.69941,-3.30812 -3.79518,-4.78791 -4.89011,-6.60407 -0.6783,-1.12501 -0.93954,-1.62535 -1.46787,-2.81137 -1.0213,-2.29255 -1.50288,-4.36644 -1.50347,-6.47446 -5.3e-4,-1.85038 0.35467,-3.20105 1.21352,-4.61446 0.98602,-1.62273 2.97215,-3.05401 4.64354,-3.34627 0.60527,-0.10602 1.6343,-0.044 2.17171,0.13063 1.83593,0.59642 3.39543,2.1689 4.47,4.50727 0.51016,1.11009 0.79669,1.96297 1.11842,3.32899 0.10722,0.4548 0.20162,0.83437 0.20999,0.84348 0.008,0.008 0.0773,-0.1706 0.15317,-0.39915 0.44429,-1.33844 1.26131,-3.18194 1.83365,-4.13729 1.16147,-1.93877 2.95443,-3.49063 4.46496,-3.86451 0.44386,-0.10986 1.13409,-0.11245 1.51105,-0.007 1.24509,0.35294 1.94933,1.54053 2.26621,3.82171 0.10697,0.77011 0.14777,2.86162 0.0716,3.67114 -0.32877,3.49291 -1.74781,7.00009 -4.39975,10.87386 -0.77451,1.13137 -1.69414,2.37154 -3.19202,4.30464 -0.72923,0.94115 -1.6734,2.17732 -2.09813,2.74701 l -0.77223,1.03583 0.19358,0.27916 c 0.10659,0.15343 0.19356,0.33577 0.19356,0.40493 0,0.28629 -0.94493,1.05718 -1.608,1.31185 -0.40549,0.15582 -0.57372,0.16213 -0.69816,0.0268 z m 2.6095,-4.90371 c 1.53565,-1.98439 2.39034,-3.13295 3.12773,-4.20317 2.954,-4.28721 4.3814,-8.23222 4.38169,-12.10984 0,-1.67406 -0.325,-3.38658 -0.8507,-4.48117 -0.46231,-0.9626 -1.45666,-1.44321 -2.11594,-1.02276 -0.29163,0.18606 -0.52794,0.51334 -1.02494,1.41976 -1.33243,2.43011 -2.14812,4.95916 -3.18338,9.87003 -0.19556,0.92778 -0.20992,0.97037 -0.39735,1.18016 -0.37516,0.41996 -1.55361,1.0905 -1.91879,1.0918 -0.20803,0 -0.16877,0.1778 -0.33815,-1.52333 -0.31392,-3.15202 -0.72103,-5.18759 -1.40636,-7.03185 -1.19161,-3.20676 -3.17037,-5.31658 -5.32013,-5.67252 -0.62708,-0.10384 -1.19084,0.051 -1.59452,0.43759 -0.29315,0.28082 -0.73212,1.00265 -0.94713,1.55741 -1.25997,3.25121 -0.10973,8.2868 2.9885,13.08447 0.95024,1.47141 2.01383,2.87317 4.36514,5.75296 0.81644,0.99996 1.77511,2.19365 2.13035,2.65266 0.35526,0.45897 0.66124,0.82535 0.68003,0.81415 0.0179,-0.0109 0.65952,-0.82854 1.42395,-1.81635 z"
       style="fill:#f5edde;stroke-width:0.0135625"
       id="path2590-6-0" />
    <path
       d="m 179.52888,80.671546 c -0.009,-0.0227 0.1952,-0.40428 0.51539,-0.96448 0.2914,-0.5098 0.53697,-0.9458 0.54573,-0.96889 0.0113,-0.0297 -0.0448,-0.11593 -0.19153,-0.29487 -1.37594,-1.67736 -2.55086,-3.50075 -3.51967,-5.46228 -0.55663,-1.12699 -0.74554,-1.58588 -0.83657,-2.03219 -0.0491,-0.24076 -0.0551,-0.66296 -0.0122,-0.86737 0.15541,-0.74189 0.90787,-1.45094 1.74657,-1.64579 0.24151,-0.0562 0.64713,-0.0569 0.85713,-0.002 0.33996,0.0894 0.65883,0.30515 0.89797,0.60757 0.2932,0.37079 0.44049,0.72858 0.90716,2.2036 l 0.20491,0.64767 0.25782,-0.50024 c 0.44552,-0.86441 0.78777,-1.45453 1.26634,-2.18345 0.3268,-0.49777 0.96104,-1.39228 1.20215,-1.69551 0.50461,-0.63461 1.23548,-1.20028 1.82649,-1.41367 0.21371,-0.0772 0.58575,-0.1086 0.75189,-0.0636 0.45167,0.12252 0.61953,0.63497 0.5546,1.6931 -0.0582,0.94774 -0.24634,1.71206 -0.69613,2.82733 -0.57074,1.41514 -1.28037,2.77652 -3.31686,6.36314 -0.36297,0.63925 -0.65994,1.17107 -0.65994,1.18182 0,0.0108 0.0221,0.0396 0.0491,0.064 0.027,0.0245 0.0491,0.0629 0.0491,0.0854 0,0.0613 -0.15128,0.22608 -0.3043,0.33147 -0.13024,0.0897 -0.15269,0.12345 -0.58517,0.87969 -0.4171,0.72937 -0.45953,0.79395 -0.58488,0.89034 -0.32856,0.25267 -0.87788,0.44198 -0.92514,0.31882 z m 1.8921,-3.37212 c 1.34201,-2.34871 2.39382,-4.29596 2.83045,-5.24009 0.74396,-1.60866 1.19292,-3.27641 1.13112,-4.20168 -0.032,-0.47896 -0.13465,-0.80691 -0.30932,-0.98812 -0.20887,-0.2167 -0.29326,-0.16722 -0.76132,0.44638 -1.36417,1.78836 -2.33537,3.48421 -3.11919,5.44654 -0.15982,0.40011 -0.18607,0.44922 -0.29131,0.54507 -0.29863,0.27199 -0.76354,0.53052 -0.92922,0.51674 l -0.0933,-0.008 -0.49517,-1.56728 c -0.50532,-1.59943 -0.57743,-1.81085 -0.70575,-2.06947 -0.27448,-0.55316 -0.79017,-1.00647 -1.18193,-1.03896 l -0.13029,-0.0108 -0.0668,0.11406 c -0.21686,0.37004 -0.17236,0.98939 0.12464,1.73432 0.61609,1.54533 1.76352,3.58586 2.95782,5.26005 0.28684,0.40209 0.9141,1.22717 0.93271,1.22686 0.007,0 0.0549,-0.0747 0.10692,-0.16585 z"
       style="fill:#be8d0d;stroke-width:0.00650148"
       id="path2649-0-2" />
    <path
       style="fill:none;fill-rule:evenodd;stroke:#000000;stroke-width:0.421402px;stroke-linecap:butt;stroke-linejoin:miter;stroke-opacity:1"
       d="m 118.36611,25.342513 v 0"
       id="path3990"
       inkscape:connector-type="polyline"
       inkscape:connector-curvature="0" />
    <circle
       id="path6831"
       style="fill:#f5edde;stroke:#be8d0d;stroke-width:0.264583"
       cx="108.71809"
       cy="36.502995"
       r="0.012428951" />
    <circle
       id="path6833"
       style="fill:#f5edde;stroke:#be8d0d;stroke-width:0.264583"
       cx="108.71809"
       cy="36.502995"
       r="0.012428951" />
    <path
       style="fill:none;fill-rule:evenodd;stroke:#000000;stroke-width:0.264583px;stroke-linecap:butt;stroke-linejoin:miter;stroke-opacity:1"
       d="m 106.81678,39.928924 12.90995,4.108162"
       id="path7698"
       inkscape:connector-type="polyline"
       inkscape:connector-curvature="0"
       inkscape:connection-start="#path2508-9"
       inkscape:connection-end="#path2688-6" />
    <path
       style="fill:none;fill-rule:evenodd;stroke:#000000;stroke-width:0.264583px;stroke-linecap:butt;stroke-linejoin:miter;stroke-opacity:1"
       d="m 132.56342,41.731831 12.09947,-8.354998"
       id="path7700"
       inkscape:connector-type="polyline"
       inkscape:connector-curvature="0"
       inkscape:connection-start="#path2688-6"
       inkscape:connection-end="#path2098-2" />
    <path
       style="fill:none;fill-rule:evenodd;stroke:#000000;stroke-width:0.264583px;stroke-linecap:butt;stroke-linejoin:miter;stroke-opacity:1"
       d="M 156.00302,56.594386 131.34601,47.908739"
       id="path7704"
       inkscape:connector-type="polyline"
       inkscape:connector-curvature="0"
       inkscape:connection-start="#path2013-1-6"
       inkscape:connection-end="#path2688-6" />
    <path
       style="fill:none;fill-rule:evenodd;stroke:#000000;stroke-width:0.264583px;stroke-linecap:butt;stroke-linejoin:miter;stroke-opacity:1"
       d="M 121.23999,50.617769 103.4213,66.732482"
       id="path7706"
       inkscape:connector-type="polyline"
       inkscape:connector-curvature="0"
       inkscape:connection-start="#path2688-6"
       inkscape:connection-end="#path2370-0" />
    <path
       style="fill:none;fill-rule:evenodd;stroke:#000000;stroke-width:0.264583px;stroke-linecap:butt;stroke-linejoin:miter;stroke-opacity:1"
       d="m 126.2287,54.450046 0,17.915703"
       id="path7708"
       inkscape:connector-type="orthogonal"
       inkscape:connector-curvature="0"
       inkscape:connection-start="#path2688-6"
       inkscape:connection-end="#path2155-7" />
    <path
       style="fill:none;fill-rule:evenodd;stroke:#000000;stroke-width:0.264583px;stroke-linecap:butt;stroke-linejoin:miter;stroke-opacity:1"
       d="m 129.85561,50.918379 14.23552,18.887955"
       id="path7710"
       inkscape:connector-type="polyline"
       inkscape:connector-curvature="0"
       inkscape:connection-start="#path2688-6"
       inkscape:connection-end="#path2551-3" />
    <path
       style="fill:none;fill-rule:evenodd;stroke:#000000;stroke-width:0.264583px;stroke-linecap:butt;stroke-linejoin:miter;stroke-opacity:1"
       d="M 156.24115,100.87133 151.33372,84.45997"
       id="path7896"
       inkscape:connector-type="polyline"
       inkscape:connector-curvature="0"
       inkscape:connection-start="#path2590-6-0"
       inkscape:connection-end="#path2551-3" />
    <path
       style="fill:none;fill-rule:evenodd;stroke:#000000;stroke-width:0.264583px;stroke-linecap:butt;stroke-linejoin:miter;stroke-opacity:1"
       d="M 150.00793,103.66354 129.33294,80.89579"
       id="path7900"
       inkscape:connector-type="polyline"
       inkscape:connector-curvature="0"
       inkscape:connection-start="#path2590-6-0"
       inkscape:connection-end="#path2155-7" />
    <path
       style="fill:none;fill-rule:evenodd;stroke:#000000;stroke-width:0.264583px;stroke-linecap:butt;stroke-linejoin:miter;stroke-opacity:1"
       d="m 101.0739,74.035286 14.17791,0.839075"
       id="path7902"
       inkscape:connector-type="polyline"
       inkscape:connector-curvature="0"
       inkscape:connection-start="#path2370-0"
       inkscape:connection-end="#path2155-7" />
    <path
       style="fill:none;fill-rule:evenodd;stroke:#000000;stroke-width:0.264583px;stroke-linecap:butt;stroke-linejoin:miter;stroke-opacity:1"
       d="M 128.22619,102.7457 125.58443,84.097572"
       id="path8086"
       inkscape:connector-type="polyline"
       inkscape:connector-curvature="0"
       inkscape:connection-start="#path2649-0"
       inkscape:connection-end="#path2155-7" />
    <path
       style="fill:none;fill-rule:evenodd;stroke:#000000;stroke-width:0.264583px;stroke-linecap:butt;stroke-linejoin:miter;stroke-opacity:1"
       d="M 124.29262,37.29957 121.04228,22.514944"
       id="path8235"
       inkscape:connector-type="polyline"
       inkscape:connector-curvature="0"
       inkscape:connection-start="#path2688-6"
       inkscape:connection-end="#path2370-0-7" />
    <path
       style="fill:none;fill-rule:evenodd;stroke:#000000;stroke-width:0.264583px;stroke-linecap:butt;stroke-linejoin:miter;stroke-opacity:1"
       d="m 173.74059,50.802646 7.34602,-7.715141"
       id="path8464"
       inkscape:connector-type="polyline"
       inkscape:connector-curvature="0"
       inkscape:connection-start="#path2013-1-6"
       inkscape:connection-end="#path2590-6-5" />
    <path
       style="fill:none;fill-rule:evenodd;stroke:#000000;stroke-width:0.264583px;stroke-linecap:butt;stroke-linejoin:miter;stroke-opacity:1"
       d="m 174.42656,58.418518 5.5558,-0.839063"
       id="path8466"
       inkscape:connector-type="polyline"
       inkscape:connector-curvature="0"
       inkscape:connection-start="#path2013-1-6"
       inkscape:connection-end="#path2508-9-9" />
    <path
       style="fill:none;fill-rule:evenodd;stroke:#000000;stroke-width:0.264583px;stroke-linecap:butt;stroke-linejoin:miter;stroke-opacity:1"
       d="m 171.1911,64.894636 5.23158,4.400207"
       id="path8468"
       inkscape:connector-type="polyline"
       inkscape:connector-curvature="0"
       inkscape:connection-start="#path2013-1-6"
       inkscape:connection-end="#path2649-0-2" />
    <path
       style="fill:none;fill-rule:evenodd;stroke:#000000;stroke-width:0.264583px;stroke-linecap:butt;stroke-linejoin:miter;stroke-opacity:1"
       d="M 161.29842,106.22159 164.4865,67.871989"
       id="path8572"
       inkscape:connector-type="polyline"
       inkscape:connector-curvature="0"
       inkscape:connection-start="#path2590-6-0"
       inkscape:connection-end="#path2013-1-6" />
    <path
       style="fill:none;fill-rule:evenodd;stroke:#000000;stroke-width:0.264583px;stroke-linecap:butt;stroke-linejoin:miter;stroke-opacity:1"
       d="m 112.93647,82.484694 5.62902,-3.486381"
       id="path8703"
       inkscape:connector-type="polyline"
       inkscape:connector-curvature="0"
       inkscape:connection-start="#path2155-7-8-9"
       inkscape:connection-end="#path2155-7" />
    <path
       style="fill:none;fill-rule:evenodd;stroke:#000000;stroke-width:0.264583px;stroke-linecap:butt;stroke-linejoin:miter;stroke-opacity:1"
       d="M 118.83812,87.725252 121.45907,81.8751"
       id="path8705"
       inkscape:connector-type="polyline"
       inkscape:connector-curvature="0"
       inkscape:connection-start="#path2590-6"
       inkscape:connection-end="#path2155-7" />
  </g>
</svg>
